STARTFONT 2.1
COMMENT
COMMENT Converted from OpenType font "montserrat.ttf" by "otf2bdf 3.0".
COMMENT
FONT -FreeType-Montserrat Thin-Medium-R-Normal--11-80-100-100-P-54-ISO10646-1
SIZE 8 100 100
FONTBOUNDINGBOX 19 14 -2 -3
STARTPROPERTIES 19
FOUNDRY "FreeType"
FAMILY_NAME "Montserrat Thin"
WEIGHT_NAME "Medium"
SLANT "R"
SETWIDTH_NAME "Normal"
ADD_STYLE_NAME ""
PIXEL_SIZE 11
POINT_SIZE 80
RESOLUTION_X 100
RESOLUTION_Y 100
SPACING "P"
AVERAGE_WIDTH 54
CHARSET_REGISTRY "ISO10646"
CHARSET_ENCODING "1"
FONT_ASCENT 10
FONT_DESCENT 2
COPYRIGHT "Copyright 2011 The Montserrat Project Authors (https://github.com/JulietaUla/Montserrat)"
_OTF_FONTFILE "montserrat.ttf"
_OTF_PSNAME "Montserrat-Thin"
ENDPROPERTIES
CHARS 969
STARTCHAR 0000
ENCODING 0
SWIDTH 0 0
DWIDTH 0 0
BBX 0 0 0 0
BITMAP
ENDCHAR
STARTCHAR 000D
ENCODING 13
SWIDTH 180 0
DWIDTH 2 0
BBX 0 0 0 0
BITMAP
ENDCHAR
STARTCHAR 0020
ENCODING 32
SWIDTH 180 0
DWIDTH 2 0
BBX 0 0 0 0
BITMAP
ENDCHAR
STARTCHAR 0021
ENCODING 33
SWIDTH 180 0
DWIDTH 2 0
BBX 1 7 1 1
BITMAP
80
80
80
80
00
00
80
ENDCHAR
STARTCHAR 0022
ENCODING 34
SWIDTH 270 0
DWIDTH 3 0
BBX 2 1 1 6
BITMAP
C0
ENDCHAR
STARTCHAR 0023
ENCODING 35
SWIDTH 630 0
DWIDTH 7 0
BBX 7 6 0 1
BITMAP
24
24
38
48
FE
48
ENDCHAR
STARTCHAR 0024
ENCODING 36
SWIDTH 540 0
DWIDTH 6 0
BBX 5 9 1 0
BITMAP
70
C0
C0
C0
70
48
48
D0
20
ENDCHAR
STARTCHAR 0025
ENCODING 37
SWIDTH 720 0
DWIDTH 8 0
BBX 7 8 1 0
BITMAP
C0
A8
A8
B0
6E
32
52
0E
ENDCHAR
STARTCHAR 0026
ENCODING 38
SWIDTH 630 0
DWIDTH 7 0
BBX 6 8 1 0
BITMAP
60
90
90
60
A0
90
88
F4
ENDCHAR
STARTCHAR 0027
ENCODING 39
SWIDTH 180 0
DWIDTH 2 0
BBX 1 1 1 6
BITMAP
80
ENDCHAR
STARTCHAR 0028
ENCODING 40
SWIDTH 270 0
DWIDTH 3 0
BBX 2 9 1 -1
BITMAP
80
80
80
80
80
80
80
80
40
ENDCHAR
STARTCHAR 0029
ENCODING 41
SWIDTH 270 0
DWIDTH 3 0
BBX 1 8 1 -1
BITMAP
80
80
80
80
80
80
80
80
ENDCHAR
STARTCHAR 002A
ENCODING 42
SWIDTH 270 0
DWIDTH 3 0
BBX 4 2 0 5
BITMAP
60
F0
ENDCHAR
STARTCHAR 002B
ENCODING 43
SWIDTH 540 0
DWIDTH 6 0
BBX 2 2 2 3
BITMAP
80
C0
ENDCHAR
STARTCHAR 002C
ENCODING 44
SWIDTH 180 0
DWIDTH 2 0
BBX 1 1 0 -1
BITMAP
80
ENDCHAR
STARTCHAR 002D
ENCODING 45
SWIDTH 360 0
DWIDTH 4 0
BBX 1 1 2 2
BITMAP
80
ENDCHAR
STARTCHAR 002E
ENCODING 46
SWIDTH 180 0
DWIDTH 2 0
BBX 0 0 1 0
BITMAP
ENDCHAR
STARTCHAR 002F
ENCODING 47
SWIDTH 270 0
DWIDTH 3 0
BBX 3 8 0 0
BITMAP
20
20
40
40
40
80
80
80
ENDCHAR
STARTCHAR 0030
ENCODING 48
SWIDTH 630 0
DWIDTH 7 0
BBX 6 8 1 0
BITMAP
70
88
88
84
84
88
88
F0
ENDCHAR
STARTCHAR 0031
ENCODING 49
SWIDTH 270 0
DWIDTH 3 0
BBX 1 7 1 0
BITMAP
80
80
80
80
80
80
80
ENDCHAR
STARTCHAR 0032
ENCODING 50
SWIDTH 540 0
DWIDTH 6 0
BBX 5 8 0 0
BITMAP
70
08
08
08
10
20
40
F8
ENDCHAR
STARTCHAR 0033
ENCODING 51
SWIDTH 540 0
DWIDTH 6 0
BBX 4 8 1 0
BITMAP
F0
30
20
40
30
10
10
F0
ENDCHAR
STARTCHAR 0034
ENCODING 52
SWIDTH 630 0
DWIDTH 7 0
BBX 6 6 1 1
BITMAP
20
40
80
90
FC
10
ENDCHAR
STARTCHAR 0035
ENCODING 53
SWIDTH 540 0
DWIDTH 6 0
BBX 6 8 0 0
BITMAP
70
80
80
80
78
04
08
78
ENDCHAR
STARTCHAR 0036
ENCODING 54
SWIDTH 540 0
DWIDTH 6 0
BBX 5 8 1 0
BITMAP
78
80
80
A0
D8
88
88
F0
ENDCHAR
STARTCHAR 0037
ENCODING 55
SWIDTH 540 0
DWIDTH 6 0
BBX 6 8 0 0
BITMAP
FC
88
08
10
10
20
20
20
ENDCHAR
STARTCHAR 0038
ENCODING 56
SWIDTH 540 0
DWIDTH 6 0
BBX 5 8 1 0
BITMAP
70
88
88
90
E8
88
88
F8
ENDCHAR
STARTCHAR 0039
ENCODING 57
SWIDTH 540 0
DWIDTH 6 0
BBX 6 8 0 0
BITMAP
70
88
84
8C
74
04
08
30
ENDCHAR
STARTCHAR 003A
ENCODING 58
SWIDTH 180 0
DWIDTH 2 0
BBX 0 0 1 0
BITMAP
ENDCHAR
STARTCHAR 003B
ENCODING 59
SWIDTH 180 0
DWIDTH 2 0
BBX 1 1 0 4
BITMAP
80
ENDCHAR
STARTCHAR 003C
ENCODING 60
SWIDTH 540 0
DWIDTH 6 0
BBX 4 4 1 2
BITMAP
10
60
80
60
ENDCHAR
STARTCHAR 003D
ENCODING 61
SWIDTH 540 0
DWIDTH 6 0
BBX 2 2 2 3
BITMAP
C0
C0
ENDCHAR
STARTCHAR 003E
ENCODING 62
SWIDTH 540 0
DWIDTH 6 0
BBX 4 4 1 2
BITMAP
80
60
10
E0
ENDCHAR
STARTCHAR 003F
ENCODING 63
SWIDTH 540 0
DWIDTH 6 0
BBX 4 5 1 0
BITMAP
E0
10
10
10
20
ENDCHAR
STARTCHAR 0040
ENCODING 64
SWIDTH 990 0
DWIDTH 11 0
BBX 10 10 1 -2
BITMAP
1E00
E100
9C80
A240
C240
C240
C240
A580
9800
7C00
ENDCHAR
STARTCHAR 0041
ENCODING 65
SWIDTH 630 0
DWIDTH 7 0
BBX 7 8 0 0
BITMAP
10
28
28
48
44
7C
82
80
ENDCHAR
STARTCHAR 0042
ENCODING 66
SWIDTH 720 0
DWIDTH 8 0
BBX 7 8 1 0
BITMAP
F8
84
84
84
BC
82
82
FC
ENDCHAR
STARTCHAR 0043
ENCODING 67
SWIDTH 630 0
DWIDTH 7 0
BBX 6 8 1 0
BITMAP
38
C0
80
80
80
80
80
7C
ENDCHAR
STARTCHAR 0044
ENCODING 68
SWIDTH 810 0
DWIDTH 9 0
BBX 7 8 1 0
BITMAP
F8
86
82
82
82
82
82
FC
ENDCHAR
STARTCHAR 0045
ENCODING 69
SWIDTH 630 0
DWIDTH 7 0
BBX 5 8 1 0
BITMAP
F0
80
80
80
B0
80
80
F8
ENDCHAR
STARTCHAR 0046
ENCODING 70
SWIDTH 540 0
DWIDTH 6 0
BBX 4 8 1 0
BITMAP
F0
80
80
80
B0
80
80
80
ENDCHAR
STARTCHAR 0047
ENCODING 71
SWIDTH 720 0
DWIDTH 8 0
BBX 6 8 1 0
BITMAP
38
C0
80
80
80
84
80
7C
ENDCHAR
STARTCHAR 0048
ENCODING 72
SWIDTH 810 0
DWIDTH 9 0
BBX 7 8 1 0
BITMAP
82
82
82
82
BA
82
82
82
ENDCHAR
STARTCHAR 0049
ENCODING 73
SWIDTH 270 0
DWIDTH 3 0
BBX 1 8 1 0
BITMAP
80
80
80
80
80
80
80
80
ENDCHAR
STARTCHAR 004A
ENCODING 74
SWIDTH 450 0
DWIDTH 5 0
BBX 3 8 1 0
BITMAP
60
20
20
20
20
20
20
C0
ENDCHAR
STARTCHAR 004B
ENCODING 75
SWIDTH 630 0
DWIDTH 7 0
BBX 6 8 1 0
BITMAP
80
88
90
A0
C0
90
88
84
ENDCHAR
STARTCHAR 004C
ENCODING 76
SWIDTH 540 0
DWIDTH 6 0
BBX 4 8 1 0
BITMAP
80
80
80
80
80
80
80
F0
ENDCHAR
STARTCHAR 004D
ENCODING 77
SWIDTH 900 0
DWIDTH 10 0
BBX 8 8 1 0
BITMAP
80
83
C3
A5
A5
99
89
80
ENDCHAR
STARTCHAR 004E
ENCODING 78
SWIDTH 810 0
DWIDTH 9 0
BBX 7 8 1 0
BITMAP
82
C2
C2
A2
92
8A
86
82
ENDCHAR
STARTCHAR 004F
ENCODING 79
SWIDTH 810 0
DWIDTH 9 0
BBX 8 8 1 0
BITMAP
38
C6
82
81
81
82
82
7C
ENDCHAR
STARTCHAR 0050
ENCODING 80
SWIDTH 630 0
DWIDTH 7 0
BBX 6 8 1 0
BITMAP
F8
84
84
84
84
F8
80
80
ENDCHAR
STARTCHAR 0051
ENCODING 81
SWIDTH 810 0
DWIDTH 9 0
BBX 8 9 1 -1
BITMAP
38
C6
82
81
81
82
82
44
3E
ENDCHAR
STARTCHAR 0052
ENCODING 82
SWIDTH 630 0
DWIDTH 7 0
BBX 6 8 1 0
BITMAP
F8
84
84
84
84
F8
88
84
ENDCHAR
STARTCHAR 0053
ENCODING 83
SWIDTH 540 0
DWIDTH 6 0
BBX 5 8 1 0
BITMAP
70
80
80
80
70
08
08
F0
ENDCHAR
STARTCHAR 0054
ENCODING 84
SWIDTH 540 0
DWIDTH 6 0
BBX 4 7 1 0
BITMAP
F0
40
40
40
40
40
40
ENDCHAR
STARTCHAR 0055
ENCODING 85
SWIDTH 720 0
DWIDTH 8 0
BBX 6 8 1 0
BITMAP
80
84
84
84
84
84
84
78
ENDCHAR
STARTCHAR 0056
ENCODING 86
SWIDTH 630 0
DWIDTH 7 0
BBX 7 7 0 1
BITMAP
82
84
44
48
28
28
10
ENDCHAR
STARTCHAR 0057
ENCODING 87
SWIDTH 1080 0
DWIDTH 12 0
BBX 11 8 0 0
BITMAP
0400
8620
4A20
4A40
4940
3140
3180
1080
ENDCHAR
STARTCHAR 0058
ENCODING 88
SWIDTH 540 0
DWIDTH 6 0
BBX 5 7 1 1
BITMAP
90
90
60
60
90
90
08
ENDCHAR
STARTCHAR 0059
ENCODING 89
SWIDTH 540 0
DWIDTH 6 0
BBX 6 8 0 0
BITMAP
80
84
48
48
30
10
10
10
ENDCHAR
STARTCHAR 005A
ENCODING 90
SWIDTH 630 0
DWIDTH 7 0
BBX 5 8 1 0
BITMAP
78
08
10
20
40
40
80
F8
ENDCHAR
STARTCHAR 005B
ENCODING 91
SWIDTH 270 0
DWIDTH 3 0
BBX 1 10 1 -2
BITMAP
80
80
80
80
80
80
80
80
80
80
ENDCHAR
STARTCHAR 005C
ENCODING 92
SWIDTH 270 0
DWIDTH 3 0
BBX 3 8 0 0
BITMAP
80
80
80
40
40
40
20
20
ENDCHAR
STARTCHAR 005D
ENCODING 93
SWIDTH 270 0
DWIDTH 3 0
BBX 1 10 1 -2
BITMAP
80
80
80
80
80
80
80
80
80
80
ENDCHAR
STARTCHAR 005E
ENCODING 94
SWIDTH 540 0
DWIDTH 6 0
BBX 4 4 1 2
BITMAP
20
60
A0
90
ENDCHAR
STARTCHAR 005F
ENCODING 95
SWIDTH 450 0
DWIDTH 5 0
BBX 4 1 1 -1
BITMAP
F0
ENDCHAR
STARTCHAR 0060
ENCODING 96
SWIDTH 540 0
DWIDTH 6 0
BBX 2 1 2 7
BITMAP
C0
ENDCHAR
STARTCHAR 0061
ENCODING 97
SWIDTH 540 0
DWIDTH 6 0
BBX 4 6 1 0
BITMAP
E0
10
10
F0
90
E0
ENDCHAR
STARTCHAR 0062
ENCODING 98
SWIDTH 630 0
DWIDTH 7 0
BBX 6 8 1 0
BITMAP
80
80
F0
88
84
84
84
F8
ENDCHAR
STARTCHAR 0063
ENCODING 99
SWIDTH 540 0
DWIDTH 6 0
BBX 4 6 1 0
BITMAP
70
80
80
80
80
E0
ENDCHAR
STARTCHAR 0064
ENCODING 100
SWIDTH 630 0
DWIDTH 7 0
BBX 5 7 1 1
BITMAP
08
78
88
88
88
88
F0
ENDCHAR
STARTCHAR 0065
ENCODING 101
SWIDTH 540 0
DWIDTH 6 0
BBX 5 6 1 0
BITMAP
60
98
80
F8
80
F0
ENDCHAR
STARTCHAR 0066
ENCODING 102
SWIDTH 270 0
DWIDTH 3 0
BBX 2 8 1 0
BITMAP
C0
80
C0
80
80
80
80
80
ENDCHAR
STARTCHAR 0067
ENCODING 103
SWIDTH 630 0
DWIDTH 7 0
BBX 5 8 1 -2
BITMAP
70
88
88
88
88
58
28
F8
ENDCHAR
STARTCHAR 0068
ENCODING 104
SWIDTH 630 0
DWIDTH 7 0
BBX 5 8 1 0
BITMAP
80
80
F0
88
88
88
88
80
ENDCHAR
STARTCHAR 0069
ENCODING 105
SWIDTH 180 0
DWIDTH 2 0
BBX 1 8 1 0
BITMAP
80
00
80
80
80
80
80
80
ENDCHAR
STARTCHAR 006A
ENCODING 106
SWIDTH 180 0
DWIDTH 2 0
BBX 2 10 0 -2
BITMAP
40
00
40
40
40
40
40
40
40
80
ENDCHAR
STARTCHAR 006B
ENCODING 107
SWIDTH 540 0
DWIDTH 6 0
BBX 5 8 1 0
BITMAP
80
80
88
90
E0
A0
90
88
ENDCHAR
STARTCHAR 006C
ENCODING 108
SWIDTH 180 0
DWIDTH 2 0
BBX 1 8 1 0
BITMAP
80
80
80
80
80
80
80
80
ENDCHAR
STARTCHAR 006D
ENCODING 109
SWIDTH 990 0
DWIDTH 11 0
BBX 10 6 1 0
BITMAP
F380
8C80
8840
8840
8840
8040
ENDCHAR
STARTCHAR 006E
ENCODING 110
SWIDTH 630 0
DWIDTH 7 0
BBX 5 6 1 0
BITMAP
F0
88
88
88
88
80
ENDCHAR
STARTCHAR 006F
ENCODING 111
SWIDTH 540 0
DWIDTH 6 0
BBX 5 6 1 0
BITMAP
70
88
88
88
88
F0
ENDCHAR
STARTCHAR 0070
ENCODING 112
SWIDTH 630 0
DWIDTH 7 0
BBX 6 8 1 -2
BITMAP
F0
88
84
84
84
C8
B0
80
ENDCHAR
STARTCHAR 0071
ENCODING 113
SWIDTH 630 0
DWIDTH 7 0
BBX 5 7 1 -2
BITMAP
70
88
88
88
88
98
68
ENDCHAR
STARTCHAR 0072
ENCODING 114
SWIDTH 360 0
DWIDTH 4 0
BBX 2 6 1 0
BITMAP
80
C0
80
80
80
80
ENDCHAR
STARTCHAR 0073
ENCODING 115
SWIDTH 450 0
DWIDTH 5 0
BBX 5 6 0 0
BITMAP
70
80
80
70
08
70
ENDCHAR
STARTCHAR 0074
ENCODING 116
SWIDTH 360 0
DWIDTH 4 0
BBX 2 7 1 0
BITMAP
80
C0
80
80
80
80
C0
ENDCHAR
STARTCHAR 0075
ENCODING 117
SWIDTH 630 0
DWIDTH 7 0
BBX 5 5 1 1
BITMAP
88
88
88
88
F0
ENDCHAR
STARTCHAR 0076
ENCODING 118
SWIDTH 450 0
DWIDTH 5 0
BBX 5 5 0 1
BITMAP
88
88
50
50
20
ENDCHAR
STARTCHAR 0077
ENCODING 119
SWIDTH 810 0
DWIDTH 9 0
BBX 9 6 0 0
BITMAP
0800
9880
9500
5500
6500
6200
ENDCHAR
STARTCHAR 0078
ENCODING 120
SWIDTH 450 0
DWIDTH 5 0
BBX 3 4 1 1
BITMAP
A0
C0
40
A0
ENDCHAR
STARTCHAR 0079
ENCODING 121
SWIDTH 450 0
DWIDTH 5 0
BBX 5 7 0 -1
BITMAP
88
88
50
50
20
20
40
ENDCHAR
STARTCHAR 007A
ENCODING 122
SWIDTH 450 0
DWIDTH 5 0
BBX 4 6 1 0
BITMAP
70
30
40
40
80
E0
ENDCHAR
STARTCHAR 007B
ENCODING 123
SWIDTH 270 0
DWIDTH 3 0
BBX 2 9 1 -1
BITMAP
80
80
80
80
80
80
80
80
40
ENDCHAR
STARTCHAR 007C
ENCODING 124
SWIDTH 270 0
DWIDTH 3 0
BBX 1 10 1 -2
BITMAP
80
80
80
80
80
80
80
80
80
80
ENDCHAR
STARTCHAR 007D
ENCODING 125
SWIDTH 270 0
DWIDTH 3 0
BBX 1 10 1 -2
BITMAP
80
80
80
80
80
80
80
80
80
80
ENDCHAR
STARTCHAR 007E
ENCODING 126
SWIDTH 540 0
DWIDTH 6 0
BBX 3 1 2 4
BITMAP
E0
ENDCHAR
STARTCHAR 00A0
ENCODING 160
SWIDTH 180 0
DWIDTH 2 0
BBX 0 0 0 0
BITMAP
ENDCHAR
STARTCHAR 00A1
ENCODING 161
SWIDTH 180 0
DWIDTH 2 0
BBX 1 7 1 -2
BITMAP
80
00
00
80
80
80
80
ENDCHAR
STARTCHAR 00A2
ENCODING 162
SWIDTH 540 0
DWIDTH 6 0
BBX 4 7 1 0
BITMAP
70
C0
C0
C0
C0
C0
20
ENDCHAR
STARTCHAR 00A3
ENCODING 163
SWIDTH 540 0
DWIDTH 6 0
BBX 5 8 1 0
BITMAP
78
80
80
80
E0
80
80
F8
ENDCHAR
STARTCHAR 00A4
ENCODING 164
SWIDTH 630 0
DWIDTH 7 0
BBX 7 7 0 0
BITMAP
10
6C
82
82
82
44
38
ENDCHAR
STARTCHAR 00A5
ENCODING 165
SWIDTH 630 0
DWIDTH 7 0
BBX 6 7 0 0
BITMAP
80
84
44
28
10
3C
3C
ENDCHAR
STARTCHAR 00A6
ENCODING 166
SWIDTH 270 0
DWIDTH 3 0
BBX 1 10 1 -2
BITMAP
80
80
80
80
00
00
80
80
80
80
ENDCHAR
STARTCHAR 00A7
ENCODING 167
SWIDTH 450 0
DWIDTH 5 0
BBX 5 9 0 -1
BITMAP
70
80
80
70
88
88
70
08
70
ENDCHAR
STARTCHAR 00A8
ENCODING 168
SWIDTH 540 0
DWIDTH 6 0
BBX 3 1 2 7
BITMAP
A0
ENDCHAR
STARTCHAR 00A9
ENCODING 169
SWIDTH 810 0
DWIDTH 9 0
BBX 7 8 1 0
BITMAP
38
C6
F2
C2
C2
C2
B2
7C
ENDCHAR
STARTCHAR 00AA
ENCODING 170
SWIDTH 360 0
DWIDTH 4 0
BBX 2 3 1 5
BITMAP
40
C0
80
ENDCHAR
STARTCHAR 00AB
ENCODING 171
SWIDTH 360 0
DWIDTH 4 0
BBX 3 3 1 2
BITMAP
C0
C0
20
ENDCHAR
STARTCHAR 00AC
ENCODING 172
SWIDTH 540 0
DWIDTH 6 0
BBX 2 1 2 2
BITMAP
C0
ENDCHAR
STARTCHAR 00AD
ENCODING 173
SWIDTH 360 0
DWIDTH 4 0
BBX 1 1 2 2
BITMAP
80
ENDCHAR
STARTCHAR 00AE
ENCODING 174
SWIDTH 810 0
DWIDTH 9 0
BBX 7 8 1 0
BITMAP
38
C6
FA
C6
CA
B2
82
7C
ENDCHAR
STARTCHAR 00AF
ENCODING 175
SWIDTH 540 0
DWIDTH 6 0
BBX 1 1 3 7
BITMAP
80
ENDCHAR
STARTCHAR 00B0
ENCODING 176
SWIDTH 360 0
DWIDTH 4 0
BBX 3 3 1 4
BITMAP
C0
A0
A0
ENDCHAR
STARTCHAR 00B1
ENCODING 177
SWIDTH 540 0
DWIDTH 6 0
BBX 2 5 2 1
BITMAP
80
C0
00
00
C0
ENDCHAR
STARTCHAR 00B2
ENCODING 178
SWIDTH 360 0
DWIDTH 4 0
BBX 3 4 1 4
BITMAP
E0
20
40
C0
ENDCHAR
STARTCHAR 00B3
ENCODING 179
SWIDTH 360 0
DWIDTH 4 0
BBX 3 4 1 4
BITMAP
E0
C0
60
E0
ENDCHAR
STARTCHAR 00B4
ENCODING 180
SWIDTH 540 0
DWIDTH 6 0
BBX 0 0 3 7
BITMAP
ENDCHAR
STARTCHAR 00B5
ENCODING 181
SWIDTH 630 0
DWIDTH 7 0
BBX 5 8 1 -2
BITMAP
80
88
88
88
88
90
E0
80
ENDCHAR
STARTCHAR 00B6
ENCODING 182
SWIDTH 540 0
DWIDTH 6 0
BBX 5 9 0 -1
BITMAP
78
E8
68
28
28
28
28
28
20
ENDCHAR
STARTCHAR 00B7
ENCODING 183
SWIDTH 180 0
DWIDTH 2 0
BBX 0 0 1 2
BITMAP
ENDCHAR
STARTCHAR 00B8
ENCODING 184
SWIDTH 540 0
DWIDTH 6 0
BBX 1 1 3 -1
BITMAP
80
ENDCHAR
STARTCHAR 00B9
ENCODING 185
SWIDTH 360 0
DWIDTH 4 0
BBX 1 4 2 4
BITMAP
80
80
80
80
ENDCHAR
STARTCHAR 00BA
ENCODING 186
SWIDTH 360 0
DWIDTH 4 0
BBX 4 3 0 5
BITMAP
F0
90
F0
ENDCHAR
STARTCHAR 00BB
ENCODING 187
SWIDTH 360 0
DWIDTH 4 0
BBX 3 2 1 2
BITMAP
A0
A0
ENDCHAR
STARTCHAR 00BC
ENCODING 188
SWIDTH 990 0
DWIDTH 11 0
BBX 9 7 2 0
BITMAP
8000
8400
8800
9100
9200
2400
4780
ENDCHAR
STARTCHAR 00BD
ENCODING 189
SWIDTH 990 0
DWIDTH 11 0
BBX 8 8 2 0
BITMAP
80
84
88
93
91
21
42
07
ENDCHAR
STARTCHAR 00BE
ENCODING 190
SWIDTH 990 0
DWIDTH 11 0
BBX 10 7 1 0
BITMAP
E000
4200
4400
2880
2900
D200
23C0
ENDCHAR
STARTCHAR 00BF
ENCODING 191
SWIDTH 540 0
DWIDTH 6 0
BBX 4 8 1 -2
BITMAP
20
00
00
40
80
80
80
70
ENDCHAR
STARTCHAR 00C0
ENCODING 192
SWIDTH 630 0
DWIDTH 7 0
BBX 7 9 0 1
BITMAP
10
10
28
28
48
44
7C
82
80
ENDCHAR
STARTCHAR 00C1
ENCODING 193
SWIDTH 630 0
DWIDTH 7 0
BBX 7 9 0 1
BITMAP
10
10
28
28
48
44
7C
82
80
ENDCHAR
STARTCHAR 00C2
ENCODING 194
SWIDTH 630 0
DWIDTH 7 0
BBX 7 10 0 0
BITMAP
10
20
10
28
28
48
44
7C
82
80
ENDCHAR
STARTCHAR 00C3
ENCODING 195
SWIDTH 630 0
DWIDTH 7 0
BBX 7 9 0 1
BITMAP
18
10
28
28
48
44
7C
82
80
ENDCHAR
STARTCHAR 00C4
ENCODING 196
SWIDTH 630 0
DWIDTH 7 0
BBX 7 8 0 1
BITMAP
10
28
28
48
44
7C
82
80
ENDCHAR
STARTCHAR 00C5
ENCODING 197
SWIDTH 630 0
DWIDTH 7 0
BBX 7 11 0 0
BITMAP
10
28
10
10
28
28
48
44
7C
82
80
ENDCHAR
STARTCHAR 00C6
ENCODING 198
SWIDTH 990 0
DWIDTH 11 0
BBX 9 8 0 0
BITMAP
0780
1800
1800
2800
2B80
3800
C800
8780
ENDCHAR
STARTCHAR 00C7
ENCODING 199
SWIDTH 630 0
DWIDTH 7 0
BBX 6 10 1 -2
BITMAP
38
C0
80
80
80
80
80
44
38
10
ENDCHAR
STARTCHAR 00C8
ENCODING 200
SWIDTH 630 0
DWIDTH 7 0
BBX 5 9 1 1
BITMAP
20
F0
80
80
80
B0
80
80
F8
ENDCHAR
STARTCHAR 00C9
ENCODING 201
SWIDTH 630 0
DWIDTH 7 0
BBX 5 8 1 2
BITMAP
F0
80
80
80
B0
80
80
F8
ENDCHAR
STARTCHAR 00CA
ENCODING 202
SWIDTH 630 0
DWIDTH 7 0
BBX 5 9 1 1
BITMAP
30
F0
80
80
80
B0
80
80
F8
ENDCHAR
STARTCHAR 00CB
ENCODING 203
SWIDTH 630 0
DWIDTH 7 0
BBX 5 8 1 1
BITMAP
F0
80
80
80
B0
80
80
F8
ENDCHAR
STARTCHAR 00CC
ENCODING 204
SWIDTH 270 0
DWIDTH 3 0
BBX 2 10 0 0
BITMAP
80
40
40
40
40
40
40
40
40
40
ENDCHAR
STARTCHAR 00CD
ENCODING 205
SWIDTH 270 0
DWIDTH 3 0
BBX 2 10 1 0
BITMAP
40
80
80
80
80
80
80
80
80
80
ENDCHAR
STARTCHAR 00CE
ENCODING 206
SWIDTH 270 0
DWIDTH 3 0
BBX 1 10 1 0
BITMAP
80
00
80
80
80
80
80
80
80
80
ENDCHAR
STARTCHAR 00CF
ENCODING 207
SWIDTH 270 0
DWIDTH 3 0
BBX 1 8 1 1
BITMAP
80
80
80
80
80
80
80
80
ENDCHAR
STARTCHAR 00D0
ENCODING 208
SWIDTH 810 0
DWIDTH 9 0
BBX 7 8 1 0
BITMAP
F8
86
82
82
C2
82
82
FC
ENDCHAR
STARTCHAR 00D1
ENCODING 209
SWIDTH 810 0
DWIDTH 9 0
BBX 7 9 1 1
BITMAP
10
82
C2
C2
A2
92
8A
86
82
ENDCHAR
STARTCHAR 00D2
ENCODING 210
SWIDTH 810 0
DWIDTH 9 0
BBX 8 10 1 0
BITMAP
20
10
38
C6
82
81
81
82
82
7C
ENDCHAR
STARTCHAR 00D3
ENCODING 211
SWIDTH 810 0
DWIDTH 9 0
BBX 8 9 1 1
BITMAP
10
28
C6
82
81
81
82
82
7C
ENDCHAR
STARTCHAR 00D4
ENCODING 212
SWIDTH 810 0
DWIDTH 9 0
BBX 8 10 1 0
BITMAP
10
00
38
C6
82
81
81
82
82
7C
ENDCHAR
STARTCHAR 00D5
ENCODING 213
SWIDTH 810 0
DWIDTH 9 0
BBX 8 9 1 1
BITMAP
10
38
C6
82
81
81
82
82
7C
ENDCHAR
STARTCHAR 00D6
ENCODING 214
SWIDTH 810 0
DWIDTH 9 0
BBX 8 8 1 1
BITMAP
38
C6
82
81
81
82
82
7C
ENDCHAR
STARTCHAR 00D7
ENCODING 215
SWIDTH 540 0
DWIDTH 6 0
BBX 4 4 1 2
BITMAP
80
60
20
D0
ENDCHAR
STARTCHAR 00D8
ENCODING 216
SWIDTH 810 0
DWIDTH 9 0
BBX 8 9 1 0
BITMAP
3C
C6
8A
91
A1
A2
C2
C4
B8
ENDCHAR
STARTCHAR 00D9
ENCODING 217
SWIDTH 720 0
DWIDTH 8 0
BBX 6 10 1 0
BITMAP
20
10
80
84
84
84
84
84
84
78
ENDCHAR
STARTCHAR 00DA
ENCODING 218
SWIDTH 720 0
DWIDTH 8 0
BBX 6 10 1 0
BITMAP
08
00
80
84
84
84
84
84
84
78
ENDCHAR
STARTCHAR 00DB
ENCODING 219
SWIDTH 720 0
DWIDTH 8 0
BBX 6 10 1 0
BITMAP
10
00
80
84
84
84
84
84
84
78
ENDCHAR
STARTCHAR 00DC
ENCODING 220
SWIDTH 720 0
DWIDTH 8 0
BBX 6 8 1 1
BITMAP
80
84
84
84
84
84
84
78
ENDCHAR
STARTCHAR 00DD
ENCODING 221
SWIDTH 540 0
DWIDTH 6 0
BBX 6 10 0 0
BITMAP
08
00
80
84
48
48
30
10
10
10
ENDCHAR
STARTCHAR 00DE
ENCODING 222
SWIDTH 630 0
DWIDTH 7 0
BBX 6 8 1 0
BITMAP
80
F0
8C
84
84
84
B8
80
ENDCHAR
STARTCHAR 00DF
ENCODING 223
SWIDTH 630 0
DWIDTH 7 0
BBX 6 8 1 0
BITMAP
F8
88
88
90
88
84
84
98
ENDCHAR
STARTCHAR 00E0
ENCODING 224
SWIDTH 540 0
DWIDTH 6 0
BBX 4 8 1 0
BITMAP
40
00
E0
10
10
F0
90
E0
ENDCHAR
STARTCHAR 00E1
ENCODING 225
SWIDTH 540 0
DWIDTH 6 0
BBX 4 8 1 0
BITMAP
20
00
E0
10
10
F0
90
E0
ENDCHAR
STARTCHAR 00E2
ENCODING 226
SWIDTH 540 0
DWIDTH 6 0
BBX 4 8 1 0
BITMAP
60
00
E0
10
10
F0
90
E0
ENDCHAR
STARTCHAR 00E3
ENCODING 227
SWIDTH 540 0
DWIDTH 6 0
BBX 4 8 1 0
BITMAP
40
20
E0
10
10
F0
90
E0
ENDCHAR
STARTCHAR 00E4
ENCODING 228
SWIDTH 540 0
DWIDTH 6 0
BBX 4 6 1 2
BITMAP
E0
10
10
F0
90
E0
ENDCHAR
STARTCHAR 00E5
ENCODING 229
SWIDTH 540 0
DWIDTH 6 0
BBX 4 9 1 0
BITMAP
60
A0
40
E0
10
10
F0
90
E0
ENDCHAR
STARTCHAR 00E6
ENCODING 230
SWIDTH 900 0
DWIDTH 10 0
BBX 9 6 1 0
BITMAP
E700
1880
1000
F780
8800
FF80
ENDCHAR
STARTCHAR 00E7
ENCODING 231
SWIDTH 540 0
DWIDTH 6 0
BBX 4 8 1 -2
BITMAP
70
80
80
80
80
80
60
20
ENDCHAR
STARTCHAR 00E8
ENCODING 232
SWIDTH 540 0
DWIDTH 6 0
BBX 5 8 1 0
BITMAP
40
00
60
98
80
F8
80
F0
ENDCHAR
STARTCHAR 00E9
ENCODING 233
SWIDTH 540 0
DWIDTH 6 0
BBX 5 6 1 2
BITMAP
60
98
80
F8
80
F0
ENDCHAR
STARTCHAR 00EA
ENCODING 234
SWIDTH 540 0
DWIDTH 6 0
BBX 5 8 1 0
BITMAP
20
00
60
98
80
F8
80
F0
ENDCHAR
STARTCHAR 00EB
ENCODING 235
SWIDTH 540 0
DWIDTH 6 0
BBX 5 8 1 0
BITMAP
40
00
60
98
80
F8
80
F0
ENDCHAR
STARTCHAR 00EC
ENCODING 236
SWIDTH 180 0
DWIDTH 2 0
BBX 1 7 1 1
BITMAP
80
80
80
80
80
80
80
ENDCHAR
STARTCHAR 00ED
ENCODING 237
SWIDTH 180 0
DWIDTH 2 0
BBX 1 6 1 2
BITMAP
80
80
80
80
80
80
ENDCHAR
STARTCHAR 00EE
ENCODING 238
SWIDTH 180 0
DWIDTH 2 0
BBX 1 8 1 0
BITMAP
80
00
80
80
80
80
80
80
ENDCHAR
STARTCHAR 00EF
ENCODING 239
SWIDTH 180 0
DWIDTH 2 0
BBX 1 6 1 2
BITMAP
80
80
80
80
80
80
ENDCHAR
STARTCHAR 00F0
ENCODING 240
SWIDTH 540 0
DWIDTH 6 0
BBX 5 8 1 0
BITMAP
E0
58
08
78
88
88
88
F0
ENDCHAR
STARTCHAR 00F1
ENCODING 241
SWIDTH 630 0
DWIDTH 7 0
BBX 5 8 1 0
BITMAP
60
00
F0
88
88
88
88
80
ENDCHAR
STARTCHAR 00F2
ENCODING 242
SWIDTH 540 0
DWIDTH 6 0
BBX 5 7 1 1
BITMAP
20
70
88
88
88
88
F0
ENDCHAR
STARTCHAR 00F3
ENCODING 243
SWIDTH 540 0
DWIDTH 6 0
BBX 5 6 1 2
BITMAP
70
88
88
88
88
F0
ENDCHAR
STARTCHAR 00F4
ENCODING 244
SWIDTH 540 0
DWIDTH 6 0
BBX 5 8 1 0
BITMAP
20
00
70
88
88
88
88
F0
ENDCHAR
STARTCHAR 00F5
ENCODING 245
SWIDTH 540 0
DWIDTH 6 0
BBX 5 8 1 0
BITMAP
40
20
70
88
88
88
88
F0
ENDCHAR
STARTCHAR 00F6
ENCODING 246
SWIDTH 540 0
DWIDTH 6 0
BBX 5 8 1 0
BITMAP
50
00
70
88
88
88
88
F0
ENDCHAR
STARTCHAR 00F7
ENCODING 247
SWIDTH 540 0
DWIDTH 6 0
BBX 2 1 2 4
BITMAP
C0
ENDCHAR
STARTCHAR 00F8
ENCODING 248
SWIDTH 540 0
DWIDTH 6 0
BBX 5 7 1 0
BITMAP
70
98
A8
C8
C8
90
60
ENDCHAR
STARTCHAR 00F9
ENCODING 249
SWIDTH 630 0
DWIDTH 7 0
BBX 5 7 1 1
BITMAP
20
00
88
88
88
88
F0
ENDCHAR
STARTCHAR 00FA
ENCODING 250
SWIDTH 630 0
DWIDTH 7 0
BBX 5 8 1 0
BITMAP
10
00
00
88
88
88
88
F0
ENDCHAR
STARTCHAR 00FB
ENCODING 251
SWIDTH 630 0
DWIDTH 7 0
BBX 5 8 1 0
BITMAP
20
00
00
88
88
88
88
F0
ENDCHAR
STARTCHAR 00FC
ENCODING 252
SWIDTH 630 0
DWIDTH 7 0
BBX 5 8 1 0
BITMAP
50
00
00
88
88
88
88
F0
ENDCHAR
STARTCHAR 00FD
ENCODING 253
SWIDTH 450 0
DWIDTH 5 0
BBX 5 10 0 -2
BITMAP
10
00
00
88
88
50
50
20
20
40
ENDCHAR
STARTCHAR 00FE
ENCODING 254
SWIDTH 630 0
DWIDTH 7 0
BBX 6 10 1 -2
BITMAP
80
80
F0
88
84
84
84
C8
B0
80
ENDCHAR
STARTCHAR 00FF
ENCODING 255
SWIDTH 450 0
DWIDTH 5 0
BBX 5 10 0 -2
BITMAP
50
00
00
88
88
50
50
20
20
40
ENDCHAR
STARTCHAR 0100
ENCODING 256
SWIDTH 630 0
DWIDTH 7 0
BBX 7 9 0 0
BITMAP
10
10
28
28
48
44
7C
82
80
ENDCHAR
STARTCHAR 0101
ENCODING 257
SWIDTH 540 0
DWIDTH 6 0
BBX 4 7 1 0
BITMAP
20
E0
10
10
F0
90
E0
ENDCHAR
STARTCHAR 0102
ENCODING 258
SWIDTH 630 0
DWIDTH 7 0
BBX 7 10 0 0
BITMAP
20
10
10
28
28
48
44
7C
82
80
ENDCHAR
STARTCHAR 0103
ENCODING 259
SWIDTH 540 0
DWIDTH 6 0
BBX 4 7 1 1
BITMAP
20
E0
10
10
F0
90
E0
ENDCHAR
STARTCHAR 0104
ENCODING 260
SWIDTH 630 0
DWIDTH 7 0
BBX 7 10 0 -2
BITMAP
10
28
28
48
44
7C
82
80
02
06
ENDCHAR
STARTCHAR 0105
ENCODING 261
SWIDTH 540 0
DWIDTH 6 0
BBX 4 8 1 -2
BITMAP
E0
10
10
F0
90
A0
40
30
ENDCHAR
STARTCHAR 0106
ENCODING 262
SWIDTH 630 0
DWIDTH 7 0
BBX 6 10 1 0
BITMAP
08
00
38
C0
80
80
80
80
80
7C
ENDCHAR
STARTCHAR 0107
ENCODING 263
SWIDTH 540 0
DWIDTH 6 0
BBX 4 6 1 2
BITMAP
70
80
80
80
80
E0
ENDCHAR
STARTCHAR 0108
ENCODING 264
SWIDTH 630 0
DWIDTH 7 0
BBX 6 10 1 0
BITMAP
10
00
38
C0
80
80
80
80
80
7C
ENDCHAR
STARTCHAR 0109
ENCODING 265
SWIDTH 540 0
DWIDTH 6 0
BBX 4 8 1 0
BITMAP
20
00
70
80
80
80
80
E0
ENDCHAR
STARTCHAR 010A
ENCODING 266
SWIDTH 630 0
DWIDTH 7 0
BBX 6 8 1 1
BITMAP
38
C0
80
80
80
80
80
7C
ENDCHAR
STARTCHAR 010B
ENCODING 267
SWIDTH 540 0
DWIDTH 6 0
BBX 4 8 1 0
BITMAP
20
00
70
80
80
80
80
E0
ENDCHAR
STARTCHAR 010C
ENCODING 268
SWIDTH 630 0
DWIDTH 7 0
BBX 6 9 1 1
BITMAP
10
28
C0
80
80
80
80
80
7C
ENDCHAR
STARTCHAR 010D
ENCODING 269
SWIDTH 540 0
DWIDTH 6 0
BBX 4 8 1 0
BITMAP
40
20
70
80
80
80
80
E0
ENDCHAR
STARTCHAR 010E
ENCODING 270
SWIDTH 810 0
DWIDTH 9 0
BBX 7 10 1 0
BITMAP
08
10
E8
86
82
82
82
82
82
FC
ENDCHAR
STARTCHAR 010F
ENCODING 271
SWIDTH 630 0
DWIDTH 7 0
BBX 7 8 1 0
BITMAP
02
08
78
88
88
88
88
F0
ENDCHAR
STARTCHAR 0110
ENCODING 272
SWIDTH 810 0
DWIDTH 9 0
BBX 7 8 1 0
BITMAP
F8
86
82
82
C2
82
82
FC
ENDCHAR
STARTCHAR 0111
ENCODING 273
SWIDTH 630 0
DWIDTH 7 0
BBX 5 7 1 1
BITMAP
18
78
88
88
88
88
F0
ENDCHAR
STARTCHAR 0112
ENCODING 274
SWIDTH 630 0
DWIDTH 7 0
BBX 5 9 1 0
BITMAP
30
F0
80
80
80
B0
80
80
F8
ENDCHAR
STARTCHAR 0113
ENCODING 275
SWIDTH 540 0
DWIDTH 6 0
BBX 5 7 1 0
BITMAP
20
60
98
80
F8
80
F0
ENDCHAR
STARTCHAR 0114
ENCODING 276
SWIDTH 630 0
DWIDTH 7 0
BBX 5 9 1 1
BITMAP
30
C0
80
80
80
B0
80
80
F8
ENDCHAR
STARTCHAR 0115
ENCODING 277
SWIDTH 540 0
DWIDTH 6 0
BBX 5 8 1 0
BITMAP
10
20
60
98
80
F8
80
F0
ENDCHAR
STARTCHAR 0116
ENCODING 278
SWIDTH 630 0
DWIDTH 7 0
BBX 5 8 1 1
BITMAP
F0
80
80
80
B0
80
80
F8
ENDCHAR
STARTCHAR 0117
ENCODING 279
SWIDTH 540 0
DWIDTH 6 0
BBX 5 8 1 0
BITMAP
20
00
60
98
80
F8
80
F0
ENDCHAR
STARTCHAR 0118
ENCODING 280
SWIDTH 630 0
DWIDTH 7 0
BBX 5 10 1 -2
BITMAP
F0
80
80
80
B0
80
80
80
78
18
ENDCHAR
STARTCHAR 0119
ENCODING 281
SWIDTH 540 0
DWIDTH 6 0
BBX 5 8 1 -2
BITMAP
60
98
80
F8
80
80
70
30
ENDCHAR
STARTCHAR 011A
ENCODING 282
SWIDTH 630 0
DWIDTH 7 0
BBX 5 9 1 1
BITMAP
30
F0
80
80
80
B0
80
80
F8
ENDCHAR
STARTCHAR 011B
ENCODING 283
SWIDTH 540 0
DWIDTH 6 0
BBX 5 8 1 0
BITMAP
40
20
60
98
80
F8
80
F0
ENDCHAR
STARTCHAR 011C
ENCODING 284
SWIDTH 720 0
DWIDTH 8 0
BBX 6 10 1 0
BITMAP
10
00
38
C0
80
80
80
84
80
7C
ENDCHAR
STARTCHAR 011D
ENCODING 285
SWIDTH 630 0
DWIDTH 7 0
BBX 5 10 1 -2
BITMAP
20
00
70
88
88
88
88
58
28
F8
ENDCHAR
STARTCHAR 011E
ENCODING 286
SWIDTH 720 0
DWIDTH 8 0
BBX 6 9 1 1
BITMAP
10
28
C0
80
80
80
84
80
7C
ENDCHAR
STARTCHAR 011F
ENCODING 287
SWIDTH 630 0
DWIDTH 7 0
BBX 5 9 1 -1
BITMAP
20
70
88
88
88
88
58
28
F8
ENDCHAR
STARTCHAR 0120
ENCODING 288
SWIDTH 720 0
DWIDTH 8 0
BBX 6 8 1 1
BITMAP
38
C0
80
80
80
84
80
7C
ENDCHAR
STARTCHAR 0121
ENCODING 289
SWIDTH 630 0
DWIDTH 7 0
BBX 5 10 1 -2
BITMAP
20
00
70
88
88
88
88
58
28
F8
ENDCHAR
STARTCHAR 0122
ENCODING 290
SWIDTH 720 0
DWIDTH 8 0
BBX 6 11 1 -3
BITMAP
38
C0
80
80
80
84
80
44
38
10
10
ENDCHAR
STARTCHAR 0123
ENCODING 291
SWIDTH 630 0
DWIDTH 7 0
BBX 5 10 1 -2
BITMAP
20
00
70
88
88
88
88
58
28
F8
ENDCHAR
STARTCHAR 0124
ENCODING 292
SWIDTH 810 0
DWIDTH 9 0
BBX 7 10 1 0
BITMAP
10
00
82
82
82
82
BA
82
82
82
ENDCHAR
STARTCHAR 0125
ENCODING 293
SWIDTH 630 0
DWIDTH 7 0
BBX 5 10 1 0
BITMAP
80
00
80
80
F0
88
88
88
88
80
ENDCHAR
STARTCHAR 0126
ENCODING 294
SWIDTH 810 0
DWIDTH 9 0
BBX 7 8 1 0
BITMAP
82
82
FE
82
BA
82
82
82
ENDCHAR
STARTCHAR 0127
ENCODING 295
SWIDTH 630 0
DWIDTH 7 0
BBX 5 8 1 0
BITMAP
80
C0
F0
88
88
88
88
80
ENDCHAR
STARTCHAR 0128
ENCODING 296
SWIDTH 270 0
DWIDTH 3 0
BBX 1 9 1 1
BITMAP
80
80
80
80
80
80
80
80
80
ENDCHAR
STARTCHAR 0129
ENCODING 297
SWIDTH 180 0
DWIDTH 2 0
BBX 3 8 0 0
BITMAP
A0
40
40
40
40
40
40
40
ENDCHAR
STARTCHAR 012A
ENCODING 298
SWIDTH 270 0
DWIDTH 3 0
BBX 1 9 1 0
BITMAP
80
80
80
80
80
80
80
80
80
ENDCHAR
STARTCHAR 012B
ENCODING 299
SWIDTH 180 0
DWIDTH 2 0
BBX 1 7 1 0
BITMAP
80
80
80
80
80
80
80
ENDCHAR
STARTCHAR 012C
ENCODING 300
SWIDTH 270 0
DWIDTH 3 0
BBX 1 9 1 1
BITMAP
80
80
80
80
80
80
80
80
80
ENDCHAR
STARTCHAR 012D
ENCODING 301
SWIDTH 180 0
DWIDTH 2 0
BBX 3 8 0 0
BITMAP
A0
40
40
40
40
40
40
40
ENDCHAR
STARTCHAR 012E
ENCODING 302
SWIDTH 270 0
DWIDTH 3 0
BBX 1 10 1 -2
BITMAP
80
80
80
80
80
80
80
80
00
80
ENDCHAR
STARTCHAR 012F
ENCODING 303
SWIDTH 180 0
DWIDTH 2 0
BBX 1 10 1 -2
BITMAP
80
00
80
80
80
80
80
80
00
80
ENDCHAR
STARTCHAR 0130
ENCODING 304
SWIDTH 270 0
DWIDTH 3 0
BBX 1 8 1 1
BITMAP
80
80
80
80
80
80
80
80
ENDCHAR
STARTCHAR 0131
ENCODING 305
SWIDTH 180 0
DWIDTH 2 0
BBX 1 6 1 0
BITMAP
80
80
80
80
80
80
ENDCHAR
STARTCHAR 0132
ENCODING 306
SWIDTH 630 0
DWIDTH 7 0
BBX 6 8 1 0
BITMAP
84
84
84
84
84
08
08
70
ENDCHAR
STARTCHAR 0133
ENCODING 307
SWIDTH 450 0
DWIDTH 5 0
BBX 3 9 1 -2
BITMAP
80
00
80
A0
A0
A0
A0
A0
20
ENDCHAR
STARTCHAR 0134
ENCODING 308
SWIDTH 450 0
DWIDTH 5 0
BBX 3 10 1 0
BITMAP
40
20
40
20
20
20
20
20
20
C0
ENDCHAR
STARTCHAR 0135
ENCODING 309
SWIDTH 180 0
DWIDTH 2 0
BBX 2 10 0 -2
BITMAP
40
00
40
40
40
40
40
40
40
80
ENDCHAR
STARTCHAR 0136
ENCODING 310
SWIDTH 630 0
DWIDTH 7 0
BBX 6 8 1 -3
BITMAP
80
88
90
A0
C0
90
88
84
ENDCHAR
STARTCHAR 0137
ENCODING 311
SWIDTH 540 0
DWIDTH 6 0
BBX 5 10 1 -3
BITMAP
80
80
88
90
E0
A0
90
88
00
20
ENDCHAR
STARTCHAR 0138
ENCODING 312
SWIDTH 540 0
DWIDTH 6 0
BBX 5 6 1 0
BITMAP
88
90
E0
A0
90
88
ENDCHAR
STARTCHAR 0139
ENCODING 313
SWIDTH 540 0
DWIDTH 6 0
BBX 4 10 1 0
BITMAP
40
80
80
80
80
80
80
80
80
F0
ENDCHAR
STARTCHAR 013A
ENCODING 314
SWIDTH 180 0
DWIDTH 2 0
BBX 1 10 1 0
BITMAP
80
00
80
80
80
80
80
80
80
80
ENDCHAR
STARTCHAR 013B
ENCODING 315
SWIDTH 540 0
DWIDTH 6 0
BBX 4 9 1 -3
BITMAP
80
80
80
80
80
80
80
80
70
ENDCHAR
STARTCHAR 013C
ENCODING 316
SWIDTH 180 0
DWIDTH 2 0
BBX 1 10 1 -3
BITMAP
80
80
80
80
80
80
80
80
00
80
ENDCHAR
STARTCHAR 013D
ENCODING 317
SWIDTH 540 0
DWIDTH 6 0
BBX 4 8 1 0
BITMAP
80
80
80
80
80
80
80
F0
ENDCHAR
STARTCHAR 013E
ENCODING 318
SWIDTH 180 0
DWIDTH 2 0
BBX 1 8 1 0
BITMAP
80
80
80
80
80
80
80
80
ENDCHAR
STARTCHAR 013F
ENCODING 319
SWIDTH 540 0
DWIDTH 6 0
BBX 4 8 1 0
BITMAP
80
80
80
80
80
80
80
F0
ENDCHAR
STARTCHAR 0140
ENCODING 320
SWIDTH 180 0
DWIDTH 2 0
BBX 1 8 1 0
BITMAP
80
80
80
80
80
80
80
80
ENDCHAR
STARTCHAR 0141
ENCODING 321
SWIDTH 540 0
DWIDTH 6 0
BBX 4 8 1 0
BITMAP
80
80
80
80
80
80
80
F0
ENDCHAR
STARTCHAR 0142
ENCODING 322
SWIDTH 180 0
DWIDTH 2 0
BBX 1 8 1 0
BITMAP
80
80
80
80
80
80
80
80
ENDCHAR
STARTCHAR 0143
ENCODING 323
SWIDTH 810 0
DWIDTH 9 0
BBX 7 10 1 0
BITMAP
08
00
82
C2
C2
A2
92
8A
86
82
ENDCHAR
STARTCHAR 0144
ENCODING 324
SWIDTH 630 0
DWIDTH 7 0
BBX 5 8 1 0
BITMAP
10
00
F0
88
88
88
88
80
ENDCHAR
STARTCHAR 0145
ENCODING 325
SWIDTH 810 0
DWIDTH 9 0
BBX 7 11 1 -3
BITMAP
82
C2
C2
A2
92
8A
86
82
00
10
10
ENDCHAR
STARTCHAR 0146
ENCODING 326
SWIDTH 630 0
DWIDTH 7 0
BBX 5 8 1 -3
BITMAP
F0
88
88
88
88
80
00
20
ENDCHAR
STARTCHAR 0147
ENCODING 327
SWIDTH 810 0
DWIDTH 9 0
BBX 7 9 1 1
BITMAP
10
82
C2
C2
A2
92
8A
86
82
ENDCHAR
STARTCHAR 0148
ENCODING 328
SWIDTH 630 0
DWIDTH 7 0
BBX 5 8 1 0
BITMAP
10
20
F0
88
88
88
88
80
ENDCHAR
STARTCHAR 0149
ENCODING 329
SWIDTH 630 0
DWIDTH 7 0
BBX 6 6 1 2
BITMAP
38
88
84
84
84
04
ENDCHAR
STARTCHAR 014A
ENCODING 330
SWIDTH 810 0
DWIDTH 9 0
BBX 7 10 1 -2
BITMAP
82
C2
C2
A2
92
8A
86
82
02
0C
ENDCHAR
STARTCHAR 014B
ENCODING 331
SWIDTH 630 0
DWIDTH 7 0
BBX 5 8 1 -2
BITMAP
F0
88
88
88
88
88
08
08
ENDCHAR
STARTCHAR 014C
ENCODING 332
SWIDTH 810 0
DWIDTH 9 0
BBX 8 9 1 0
BITMAP
10
38
C6
82
81
81
82
82
7C
ENDCHAR
STARTCHAR 014D
ENCODING 333
SWIDTH 540 0
DWIDTH 6 0
BBX 5 7 1 0
BITMAP
20
70
88
88
88
88
F0
ENDCHAR
STARTCHAR 014E
ENCODING 334
SWIDTH 810 0
DWIDTH 9 0
BBX 8 9 1 1
BITMAP
10
28
C6
82
81
81
82
82
7C
ENDCHAR
STARTCHAR 014F
ENCODING 335
SWIDTH 540 0
DWIDTH 6 0
BBX 5 7 1 1
BITMAP
20
70
88
88
88
88
F0
ENDCHAR
STARTCHAR 0150
ENCODING 336
SWIDTH 810 0
DWIDTH 9 0
BBX 8 10 1 0
BITMAP
04
08
38
C6
82
81
81
82
82
7C
ENDCHAR
STARTCHAR 0151
ENCODING 337
SWIDTH 540 0
DWIDTH 6 0
BBX 5 8 1 0
BITMAP
20
00
70
88
88
88
88
F0
ENDCHAR
STARTCHAR 0152
ENCODING 338
SWIDTH 1080 0
DWIDTH 12 0
BBX 10 8 1 0
BITMAP
3780
C400
8400
8400
8580
8400
8400
77C0
ENDCHAR
STARTCHAR 0153
ENCODING 339
SWIDTH 990 0
DWIDTH 11 0
BBX 10 6 1 0
BITMAP
7380
8C40
8800
8BC0
8400
FFC0
ENDCHAR
STARTCHAR 0154
ENCODING 340
SWIDTH 630 0
DWIDTH 7 0
BBX 6 8 1 2
BITMAP
F8
84
84
84
84
F8
88
84
ENDCHAR
STARTCHAR 0155
ENCODING 341
SWIDTH 360 0
DWIDTH 4 0
BBX 2 6 1 2
BITMAP
80
C0
80
80
80
80
ENDCHAR
STARTCHAR 0156
ENCODING 342
SWIDTH 630 0
DWIDTH 7 0
BBX 6 8 1 -3
BITMAP
F8
84
84
84
84
F8
88
84
ENDCHAR
STARTCHAR 0157
ENCODING 343
SWIDTH 360 0
DWIDTH 4 0
BBX 2 8 1 -3
BITMAP
80
C0
80
80
80
80
00
80
ENDCHAR
STARTCHAR 0158
ENCODING 344
SWIDTH 630 0
DWIDTH 7 0
BBX 6 9 1 1
BITMAP
10
F8
84
84
84
84
F8
88
84
ENDCHAR
STARTCHAR 0159
ENCODING 345
SWIDTH 360 0
DWIDTH 4 0
BBX 3 8 1 0
BITMAP
20
40
80
C0
80
80
80
80
ENDCHAR
STARTCHAR 015A
ENCODING 346
SWIDTH 540 0
DWIDTH 6 0
BBX 5 10 1 0
BITMAP
10
00
70
80
80
80
70
08
08
F0
ENDCHAR
STARTCHAR 015B
ENCODING 347
SWIDTH 450 0
DWIDTH 5 0
BBX 5 6 0 2
BITMAP
70
80
80
70
08
70
ENDCHAR
STARTCHAR 015C
ENCODING 348
SWIDTH 540 0
DWIDTH 6 0
BBX 5 10 1 0
BITMAP
20
00
70
80
80
80
70
08
08
F0
ENDCHAR
STARTCHAR 015D
ENCODING 349
SWIDTH 450 0
DWIDTH 5 0
BBX 5 8 0 0
BITMAP
20
00
70
80
80
70
08
70
ENDCHAR
STARTCHAR 015E
ENCODING 350
SWIDTH 540 0
DWIDTH 6 0
BBX 5 10 1 -2
BITMAP
70
80
80
80
70
08
08
90
60
20
ENDCHAR
STARTCHAR 015F
ENCODING 351
SWIDTH 450 0
DWIDTH 5 0
BBX 5 7 0 -2
BITMAP
70
80
80
70
08
10
60
ENDCHAR
STARTCHAR 0160
ENCODING 352
SWIDTH 540 0
DWIDTH 6 0
BBX 5 9 1 1
BITMAP
20
50
80
80
80
70
08
08
F0
ENDCHAR
STARTCHAR 0161
ENCODING 353
SWIDTH 450 0
DWIDTH 5 0
BBX 5 8 0 0
BITMAP
10
20
70
80
80
70
08
70
ENDCHAR
STARTCHAR 0162
ENCODING 354
SWIDTH 540 0
DWIDTH 6 0
BBX 4 10 1 -2
BITMAP
F0
40
40
40
40
40
40
00
00
20
ENDCHAR
STARTCHAR 0163
ENCODING 355
SWIDTH 360 0
DWIDTH 4 0
BBX 3 9 1 -2
BITMAP
80
C0
80
80
80
80
80
40
20
ENDCHAR
STARTCHAR 0164
ENCODING 356
SWIDTH 540 0
DWIDTH 6 0
BBX 4 8 1 1
BITMAP
20
F0
40
40
40
40
40
40
ENDCHAR
STARTCHAR 0165
ENCODING 357
SWIDTH 360 0
DWIDTH 4 0
BBX 2 7 1 1
BITMAP
80
C0
80
80
80
80
C0
ENDCHAR
STARTCHAR 0166
ENCODING 358
SWIDTH 540 0
DWIDTH 6 0
BBX 4 7 1 0
BITMAP
F0
40
40
40
60
40
40
ENDCHAR
STARTCHAR 0167
ENCODING 359
SWIDTH 360 0
DWIDTH 4 0
BBX 3 7 0 0
BITMAP
40
60
40
E0
40
40
60
ENDCHAR
STARTCHAR 0168
ENCODING 360
SWIDTH 720 0
DWIDTH 8 0
BBX 6 9 1 1
BITMAP
10
80
84
84
84
84
84
84
78
ENDCHAR
STARTCHAR 0169
ENCODING 361
SWIDTH 630 0
DWIDTH 7 0
BBX 5 8 1 0
BITMAP
60
00
00
88
88
88
88
F0
ENDCHAR
STARTCHAR 016A
ENCODING 362
SWIDTH 720 0
DWIDTH 8 0
BBX 6 9 1 0
BITMAP
10
80
84
84
84
84
84
84
78
ENDCHAR
STARTCHAR 016B
ENCODING 363
SWIDTH 630 0
DWIDTH 7 0
BBX 5 7 1 0
BITMAP
20
00
88
88
88
88
F0
ENDCHAR
STARTCHAR 016C
ENCODING 364
SWIDTH 720 0
DWIDTH 8 0
BBX 6 9 1 1
BITMAP
10
80
84
84
84
84
84
84
78
ENDCHAR
STARTCHAR 016D
ENCODING 365
SWIDTH 630 0
DWIDTH 7 0
BBX 5 8 1 0
BITMAP
40
20
00
88
88
88
88
F0
ENDCHAR
STARTCHAR 016E
ENCODING 366
SWIDTH 720 0
DWIDTH 8 0
BBX 6 11 1 0
BITMAP
10
30
00
80
84
84
84
84
84
84
78
ENDCHAR
STARTCHAR 016F
ENCODING 367
SWIDTH 630 0
DWIDTH 7 0
BBX 5 9 1 0
BITMAP
20
50
20
00
88
88
88
88
F0
ENDCHAR
STARTCHAR 0170
ENCODING 368
SWIDTH 720 0
DWIDTH 8 0
BBX 6 8 1 2
BITMAP
80
84
84
84
84
84
84
78
ENDCHAR
STARTCHAR 0171
ENCODING 369
SWIDTH 630 0
DWIDTH 7 0
BBX 5 8 1 0
BITMAP
20
00
00
88
88
88
88
F0
ENDCHAR
STARTCHAR 0172
ENCODING 370
SWIDTH 720 0
DWIDTH 8 0
BBX 6 10 1 -2
BITMAP
80
84
84
84
84
84
84
48
30
20
ENDCHAR
STARTCHAR 0173
ENCODING 371
SWIDTH 630 0
DWIDTH 7 0
BBX 5 7 1 -1
BITMAP
88
88
88
88
90
60
10
ENDCHAR
STARTCHAR 0174
ENCODING 372
SWIDTH 1080 0
DWIDTH 12 0
BBX 11 9 0 1
BITMAP
0600
0400
8620
4A20
4A40
4940
3140
3180
1080
ENDCHAR
STARTCHAR 0175
ENCODING 373
SWIDTH 810 0
DWIDTH 9 0
BBX 9 8 0 0
BITMAP
0800
0000
0800
9880
9500
5500
6500
6200
ENDCHAR
STARTCHAR 0176
ENCODING 374
SWIDTH 540 0
DWIDTH 6 0
BBX 6 10 0 0
BITMAP
10
00
80
84
48
48
30
10
10
10
ENDCHAR
STARTCHAR 0177
ENCODING 375
SWIDTH 450 0
DWIDTH 5 0
BBX 5 10 0 -2
BITMAP
20
00
00
88
88
50
50
20
20
40
ENDCHAR
STARTCHAR 0178
ENCODING 376
SWIDTH 540 0
DWIDTH 6 0
BBX 6 8 0 1
BITMAP
80
84
48
48
30
10
10
10
ENDCHAR
STARTCHAR 0179
ENCODING 377
SWIDTH 630 0
DWIDTH 7 0
BBX 5 10 1 0
BITMAP
10
20
58
08
10
20
40
40
80
F8
ENDCHAR
STARTCHAR 017A
ENCODING 378
SWIDTH 450 0
DWIDTH 5 0
BBX 4 8 1 0
BITMAP
20
00
70
30
40
40
80
E0
ENDCHAR
STARTCHAR 017B
ENCODING 379
SWIDTH 630 0
DWIDTH 7 0
BBX 5 8 1 1
BITMAP
78
08
10
20
40
40
80
F8
ENDCHAR
STARTCHAR 017C
ENCODING 380
SWIDTH 450 0
DWIDTH 5 0
BBX 4 8 1 0
BITMAP
40
00
70
30
40
40
80
E0
ENDCHAR
STARTCHAR 017D
ENCODING 381
SWIDTH 630 0
DWIDTH 7 0
BBX 5 10 1 0
BITMAP
40
20
58
08
10
20
40
40
80
F8
ENDCHAR
STARTCHAR 017E
ENCODING 382
SWIDTH 450 0
DWIDTH 5 0
BBX 4 8 1 0
BITMAP
20
40
70
30
40
40
80
E0
ENDCHAR
STARTCHAR 017F
ENCODING 383
SWIDTH 270 0
DWIDTH 3 0
BBX 2 8 1 0
BITMAP
40
80
80
80
80
80
80
80
ENDCHAR
STARTCHAR 018F
ENCODING 399
SWIDTH 810 0
DWIDTH 9 0
BBX 7 8 1 0
BITMAP
78
04
02
02
FE
82
82
7C
ENDCHAR
STARTCHAR 0192
ENCODING 402
SWIDTH 360 0
DWIDTH 4 0
BBX 4 10 0 -2
BITMAP
10
20
40
40
40
40
40
40
40
80
ENDCHAR
STARTCHAR 01A0
ENCODING 416
SWIDTH 810 0
DWIDTH 9 0
BBX 8 8 1 1
BITMAP
3E
C2
82
81
81
82
82
7C
ENDCHAR
STARTCHAR 01A1
ENCODING 417
SWIDTH 540 0
DWIDTH 6 0
BBX 5 6 1 1
BITMAP
70
88
88
88
88
F0
ENDCHAR
STARTCHAR 01AF
ENCODING 431
SWIDTH 720 0
DWIDTH 8 0
BBX 6 8 1 1
BITMAP
80
84
84
84
84
84
84
78
ENDCHAR
STARTCHAR 01B0
ENCODING 432
SWIDTH 630 0
DWIDTH 7 0
BBX 5 5 1 2
BITMAP
88
88
88
88
F0
ENDCHAR
STARTCHAR 01B7
ENCODING 439
SWIDTH 540 0
DWIDTH 6 0
BBX 5 8 1 0
BITMAP
78
10
20
40
30
08
08
F0
ENDCHAR
STARTCHAR 01C4
ENCODING 452
SWIDTH 1440 0
DWIDTH 16 0
BBX 14 10 1 0
BITMAP
0020
0010
F82C
8604
8208
8210
8220
8220
8240
FCFC
ENDCHAR
STARTCHAR 01C5
ENCODING 453
SWIDTH 1260 0
DWIDTH 14 0
BBX 13 8 1 0
BITMAP
F800
8620
8238
8218
8220
8220
8240
FCF0
ENDCHAR
STARTCHAR 01C6
ENCODING 454
SWIDTH 1170 0
DWIDTH 13 0
BBX 11 8 1 0
BITMAP
0080
0840
78E0
8820
8840
8880
8900
F1C0
ENDCHAR
STARTCHAR 01C7
ENCODING 455
SWIDTH 990 0
DWIDTH 11 0
BBX 9 8 1 0
BITMAP
8180
8080
8080
8080
8080
8080
8080
F380
ENDCHAR
STARTCHAR 01C8
ENCODING 456
SWIDTH 810 0
DWIDTH 9 0
BBX 7 10 1 -2
BITMAP
80
80
80
82
82
82
82
82
72
04
ENDCHAR
STARTCHAR 01C9
ENCODING 457
SWIDTH 450 0
DWIDTH 5 0
BBX 3 9 1 -2
BITMAP
80
80
80
A0
A0
A0
A0
A0
20
ENDCHAR
STARTCHAR 01CA
ENCODING 458
SWIDTH 1260 0
DWIDTH 14 0
BBX 12 8 1 0
BITMAP
8230
C210
C210
A210
9210
8A10
8610
8260
ENDCHAR
STARTCHAR 01CB
ENCODING 459
SWIDTH 990 0
DWIDTH 11 0
BBX 10 10 1 -2
BITMAP
8240
C200
C240
A240
9240
8A40
8640
8240
0040
0080
ENDCHAR
STARTCHAR 01CC
ENCODING 460
SWIDTH 900 0
DWIDTH 10 0
BBX 8 8 1 0
BITMAP
F0
89
89
89
89
81
01
02
ENDCHAR
STARTCHAR 01CD
ENCODING 461
SWIDTH 630 0
DWIDTH 7 0
BBX 7 10 0 0
BITMAP
20
10
10
28
28
48
44
7C
82
80
ENDCHAR
STARTCHAR 01CE
ENCODING 462
SWIDTH 540 0
DWIDTH 6 0
BBX 4 7 1 1
BITMAP
60
E0
10
10
F0
90
E0
ENDCHAR
STARTCHAR 01D3
ENCODING 467
SWIDTH 720 0
DWIDTH 8 0
BBX 6 10 1 0
BITMAP
08
10
80
84
84
84
84
84
84
78
ENDCHAR
STARTCHAR 01D4
ENCODING 468
SWIDTH 630 0
DWIDTH 7 0
BBX 5 8 1 0
BITMAP
10
20
00
88
88
88
88
F0
ENDCHAR
STARTCHAR 01E4
ENCODING 484
SWIDTH 720 0
DWIDTH 8 0
BBX 8 8 1 0
BITMAP
38
C0
80
80
80
8F
80
7C
ENDCHAR
STARTCHAR 01E5
ENCODING 485
SWIDTH 630 0
DWIDTH 7 0
BBX 5 8 1 -2
BITMAP
70
88
88
88
88
58
28
F8
ENDCHAR
STARTCHAR 01E6
ENCODING 486
SWIDTH 720 0
DWIDTH 8 0
BBX 6 9 1 1
BITMAP
10
28
C0
80
80
80
84
80
7C
ENDCHAR
STARTCHAR 01E7
ENCODING 487
SWIDTH 630 0
DWIDTH 7 0
BBX 5 10 1 -2
BITMAP
50
20
70
88
88
88
88
58
28
F8
ENDCHAR
STARTCHAR 01E8
ENCODING 488
SWIDTH 630 0
DWIDTH 7 0
BBX 6 9 1 1
BITMAP
10
80
88
90
A0
C0
90
88
84
ENDCHAR
STARTCHAR 01E9
ENCODING 489
SWIDTH 540 0
DWIDTH 6 0
BBX 5 10 1 0
BITMAP
80
00
80
80
88
90
E0
A0
90
88
ENDCHAR
STARTCHAR 01EA
ENCODING 490
SWIDTH 810 0
DWIDTH 9 0
BBX 8 10 1 -2
BITMAP
38
C6
82
81
81
82
82
44
38
30
ENDCHAR
STARTCHAR 01EB
ENCODING 491
SWIDTH 540 0
DWIDTH 6 0
BBX 5 8 1 -2
BITMAP
70
88
88
88
88
80
70
60
ENDCHAR
STARTCHAR 01EE
ENCODING 494
SWIDTH 540 0
DWIDTH 6 0
BBX 5 10 1 0
BITMAP
10
20
78
10
20
40
30
08
08
F0
ENDCHAR
STARTCHAR 01EF
ENCODING 495
SWIDTH 450 0
DWIDTH 5 0
BBX 4 10 1 -2
BITMAP
80
40
F0
20
40
80
60
10
10
E0
ENDCHAR
STARTCHAR 01FA
ENCODING 506
SWIDTH 630 0
DWIDTH 7 0
BBX 7 11 0 0
BITMAP
18
28
10
10
28
28
48
44
7C
82
80
ENDCHAR
STARTCHAR 01FB
ENCODING 507
SWIDTH 540 0
DWIDTH 6 0
BBX 4 9 1 0
BITMAP
60
A0
40
E0
10
10
F0
90
E0
ENDCHAR
STARTCHAR 01FC
ENCODING 508
SWIDTH 990 0
DWIDTH 11 0
BBX 9 10 0 0
BITMAP
0200
0000
0780
1800
1800
2800
2B80
3800
C800
8780
ENDCHAR
STARTCHAR 01FD
ENCODING 509
SWIDTH 900 0
DWIDTH 10 0
BBX 9 6 1 2
BITMAP
E700
1880
1000
F780
8800
FF80
ENDCHAR
STARTCHAR 01FE
ENCODING 510
SWIDTH 810 0
DWIDTH 9 0
BBX 8 10 1 0
BITMAP
10
2C
C6
8A
91
A1
A2
C2
C4
B8
ENDCHAR
STARTCHAR 01FF
ENCODING 511
SWIDTH 540 0
DWIDTH 6 0
BBX 5 7 1 1
BITMAP
70
98
A8
C8
C8
90
60
ENDCHAR
STARTCHAR 0200
ENCODING 512
SWIDTH 630 0
DWIDTH 7 0
BBX 7 10 0 0
BITMAP
10
08
10
28
28
48
44
7C
82
80
ENDCHAR
STARTCHAR 0201
ENCODING 513
SWIDTH 540 0
DWIDTH 6 0
BBX 4 8 1 0
BITMAP
80
20
E0
10
10
F0
90
E0
ENDCHAR
STARTCHAR 0202
ENCODING 514
SWIDTH 630 0
DWIDTH 7 0
BBX 7 10 0 0
BITMAP
18
20
10
28
28
48
44
7C
82
80
ENDCHAR
STARTCHAR 0203
ENCODING 515
SWIDTH 540 0
DWIDTH 6 0
BBX 4 8 1 0
BITMAP
20
00
E0
10
10
F0
90
E0
ENDCHAR
STARTCHAR 0204
ENCODING 516
SWIDTH 630 0
DWIDTH 7 0
BBX 5 10 1 0
BITMAP
20
10
F0
80
80
80
B0
80
80
F8
ENDCHAR
STARTCHAR 0205
ENCODING 517
SWIDTH 540 0
DWIDTH 6 0
BBX 5 6 1 2
BITMAP
60
98
80
F8
80
F0
ENDCHAR
STARTCHAR 0206
ENCODING 518
SWIDTH 630 0
DWIDTH 7 0
BBX 5 10 1 0
BITMAP
30
00
F0
80
80
80
B0
80
80
F8
ENDCHAR
STARTCHAR 0207
ENCODING 519
SWIDTH 540 0
DWIDTH 6 0
BBX 5 8 1 0
BITMAP
20
00
60
98
80
F8
80
F0
ENDCHAR
STARTCHAR 0208
ENCODING 520
SWIDTH 270 0
DWIDTH 3 0
BBX 3 10 -1 0
BITMAP
80
40
20
20
20
20
20
20
20
20
ENDCHAR
STARTCHAR 0209
ENCODING 521
SWIDTH 180 0
DWIDTH 2 0
BBX 1 8 1 0
BITMAP
80
00
80
80
80
80
80
80
ENDCHAR
STARTCHAR 020A
ENCODING 522
SWIDTH 270 0
DWIDTH 3 0
BBX 1 10 1 0
BITMAP
80
00
80
80
80
80
80
80
80
80
ENDCHAR
STARTCHAR 020B
ENCODING 523
SWIDTH 180 0
DWIDTH 2 0
BBX 2 8 0 0
BITMAP
C0
00
40
40
40
40
40
40
ENDCHAR
STARTCHAR 020C
ENCODING 524
SWIDTH 810 0
DWIDTH 9 0
BBX 8 9 1 1
BITMAP
20
38
C6
82
81
81
82
82
7C
ENDCHAR
STARTCHAR 020D
ENCODING 525
SWIDTH 540 0
DWIDTH 6 0
BBX 5 8 1 0
BITMAP
20
00
70
88
88
88
88
F0
ENDCHAR
STARTCHAR 020E
ENCODING 526
SWIDTH 810 0
DWIDTH 9 0
BBX 8 10 1 0
BITMAP
10
00
38
C6
82
81
81
82
82
7C
ENDCHAR
STARTCHAR 020F
ENCODING 527
SWIDTH 540 0
DWIDTH 6 0
BBX 5 8 1 0
BITMAP
70
00
70
88
88
88
88
F0
ENDCHAR
STARTCHAR 0210
ENCODING 528
SWIDTH 630 0
DWIDTH 7 0
BBX 6 9 1 1
BITMAP
10
F8
84
84
84
84
F8
88
84
ENDCHAR
STARTCHAR 0211
ENCODING 529
SWIDTH 360 0
DWIDTH 4 0
BBX 2 8 1 0
BITMAP
40
80
80
C0
80
80
80
80
ENDCHAR
STARTCHAR 0212
ENCODING 530
SWIDTH 630 0
DWIDTH 7 0
BBX 6 10 1 0
BITMAP
30
08
F8
84
84
84
84
F8
88
84
ENDCHAR
STARTCHAR 0213
ENCODING 531
SWIDTH 360 0
DWIDTH 4 0
BBX 3 8 1 0
BITMAP
E0
00
80
C0
80
80
80
80
ENDCHAR
STARTCHAR 0214
ENCODING 532
SWIDTH 720 0
DWIDTH 8 0
BBX 6 10 1 0
BITMAP
40
20
80
84
84
84
84
84
84
78
ENDCHAR
STARTCHAR 0215
ENCODING 533
SWIDTH 630 0
DWIDTH 7 0
BBX 5 8 1 0
BITMAP
20
40
00
88
88
88
88
F0
ENDCHAR
STARTCHAR 0216
ENCODING 534
SWIDTH 720 0
DWIDTH 8 0
BBX 6 10 1 0
BITMAP
10
00
80
84
84
84
84
84
84
78
ENDCHAR
STARTCHAR 0217
ENCODING 535
SWIDTH 630 0
DWIDTH 7 0
BBX 5 8 1 0
BITMAP
60
00
00
88
88
88
88
F0
ENDCHAR
STARTCHAR 0218
ENCODING 536
SWIDTH 540 0
DWIDTH 6 0
BBX 5 11 1 -3
BITMAP
70
80
80
80
70
08
08
90
60
20
20
ENDCHAR
STARTCHAR 0219
ENCODING 537
SWIDTH 450 0
DWIDTH 5 0
BBX 5 9 0 -3
BITMAP
70
80
80
70
08
10
60
20
20
ENDCHAR
STARTCHAR 021A
ENCODING 538
SWIDTH 540 0
DWIDTH 6 0
BBX 4 7 1 -3
BITMAP
F0
40
40
40
40
40
40
ENDCHAR
STARTCHAR 021B
ENCODING 539
SWIDTH 360 0
DWIDTH 4 0
BBX 2 9 1 -3
BITMAP
80
C0
80
80
80
80
80
40
40
ENDCHAR
STARTCHAR 021E
ENCODING 542
SWIDTH 810 0
DWIDTH 9 0
BBX 7 9 1 1
BITMAP
10
82
82
82
82
BA
82
82
82
ENDCHAR
STARTCHAR 021F
ENCODING 543
SWIDTH 630 0
DWIDTH 7 0
BBX 5 10 1 0
BITMAP
80
00
80
80
F0
88
88
88
88
80
ENDCHAR
STARTCHAR 022A
ENCODING 554
SWIDTH 810 0
DWIDTH 9 0
BBX 8 10 1 0
BITMAP
10
00
38
C6
82
81
81
82
82
7C
ENDCHAR
STARTCHAR 022B
ENCODING 555
SWIDTH 540 0
DWIDTH 6 0
BBX 5 9 1 0
BITMAP
70
50
00
70
88
88
88
88
F0
ENDCHAR
STARTCHAR 022C
ENCODING 556
SWIDTH 810 0
DWIDTH 9 0
BBX 8 10 1 0
BITMAP
10
10
38
C6
82
81
81
82
82
7C
ENDCHAR
STARTCHAR 022D
ENCODING 557
SWIDTH 540 0
DWIDTH 6 0
BBX 5 9 1 0
BITMAP
70
40
20
70
88
88
88
88
F0
ENDCHAR
STARTCHAR 0230
ENCODING 560
SWIDTH 810 0
DWIDTH 9 0
BBX 8 10 1 0
BITMAP
10
00
38
C6
82
81
81
82
82
7C
ENDCHAR
STARTCHAR 0231
ENCODING 561
SWIDTH 540 0
DWIDTH 6 0
BBX 5 9 1 0
BITMAP
70
20
00
70
88
88
88
88
F0
ENDCHAR
STARTCHAR 0232
ENCODING 562
SWIDTH 540 0
DWIDTH 6 0
BBX 6 9 0 0
BITMAP
10
80
84
48
48
30
10
10
10
ENDCHAR
STARTCHAR 0233
ENCODING 563
SWIDTH 450 0
DWIDTH 5 0
BBX 5 9 0 -2
BITMAP
20
00
88
88
50
50
20
20
40
ENDCHAR
STARTCHAR 0237
ENCODING 567
SWIDTH 180 0
DWIDTH 2 0
BBX 2 8 0 -2
BITMAP
40
40
40
40
40
40
40
80
ENDCHAR
STARTCHAR 0259
ENCODING 601
SWIDTH 540 0
DWIDTH 6 0
BBX 5 6 1 0
BITMAP
E0
10
08
F8
88
F0
ENDCHAR
STARTCHAR 0292
ENCODING 658
SWIDTH 450 0
DWIDTH 5 0
BBX 4 8 1 -2
BITMAP
F0
20
40
80
60
10
10
E0
ENDCHAR
STARTCHAR 02B9
ENCODING 697
SWIDTH 180 0
DWIDTH 2 0
BBX 1 1 1 6
BITMAP
80
ENDCHAR
STARTCHAR 02BA
ENCODING 698
SWIDTH 270 0
DWIDTH 3 0
BBX 2 1 1 6
BITMAP
C0
ENDCHAR
STARTCHAR 02BB
ENCODING 699
SWIDTH 180 0
DWIDTH 2 0
BBX 1 1 1 7
BITMAP
80
ENDCHAR
STARTCHAR 02BC
ENCODING 700
SWIDTH 180 0
DWIDTH 2 0
BBX 0 0 1 6
BITMAP
ENDCHAR
STARTCHAR 02BE
ENCODING 702
SWIDTH 540 0
DWIDTH 6 0
BBX 1 1 3 7
BITMAP
80
ENDCHAR
STARTCHAR 02BF
ENCODING 703
SWIDTH 540 0
DWIDTH 6 0
BBX 1 1 2 8
BITMAP
80
ENDCHAR
STARTCHAR 02C6
ENCODING 710
SWIDTH 540 0
DWIDTH 6 0
BBX 1 1 3 7
BITMAP
80
ENDCHAR
STARTCHAR 02C7
ENCODING 711
SWIDTH 540 0
DWIDTH 6 0
BBX 2 1 2 7
BITMAP
C0
ENDCHAR
STARTCHAR 02C8
ENCODING 712
SWIDTH 90 0
DWIDTH 1 0
BBX 0 0 0 6
BITMAP
ENDCHAR
STARTCHAR 02C9
ENCODING 713
SWIDTH 540 0
DWIDTH 6 0
BBX 1 1 3 7
BITMAP
80
ENDCHAR
STARTCHAR 02CA
ENCODING 714
SWIDTH 540 0
DWIDTH 6 0
BBX 0 0 3 7
BITMAP
ENDCHAR
STARTCHAR 02CB
ENCODING 715
SWIDTH 540 0
DWIDTH 6 0
BBX 2 1 2 7
BITMAP
C0
ENDCHAR
STARTCHAR 02CC
ENCODING 716
SWIDTH 90 0
DWIDTH 1 0
BBX 0 0 0 -2
BITMAP
ENDCHAR
STARTCHAR 02D8
ENCODING 728
SWIDTH 540 0
DWIDTH 6 0
BBX 2 1 3 7
BITMAP
C0
ENDCHAR
STARTCHAR 02D9
ENCODING 729
SWIDTH 540 0
DWIDTH 6 0
BBX 1 1 3 7
BITMAP
80
ENDCHAR
STARTCHAR 02DA
ENCODING 730
SWIDTH 540 0
DWIDTH 6 0
BBX 2 2 2 7
BITMAP
40
C0
ENDCHAR
STARTCHAR 02DB
ENCODING 731
SWIDTH 540 0
DWIDTH 6 0
BBX 1 1 2 -1
BITMAP
80
ENDCHAR
STARTCHAR 02DC
ENCODING 732
SWIDTH 540 0
DWIDTH 6 0
BBX 2 1 2 7
BITMAP
C0
ENDCHAR
STARTCHAR 02DD
ENCODING 733
SWIDTH 540 0
DWIDTH 6 0
BBX 1 1 3 7
BITMAP
80
ENDCHAR
STARTCHAR 0300
ENCODING 768
SWIDTH 0 0
DWIDTH 0 0
BBX 2 1 2 7
BITMAP
C0
ENDCHAR
STARTCHAR 0301
ENCODING 769
SWIDTH 0 0
DWIDTH 0 0
BBX 0 0 3 7
BITMAP
ENDCHAR
STARTCHAR 0302
ENCODING 770
SWIDTH 0 0
DWIDTH 0 0
BBX 1 1 3 7
BITMAP
80
ENDCHAR
STARTCHAR 0303
ENCODING 771
SWIDTH 0 0
DWIDTH 0 0
BBX 2 1 2 7
BITMAP
C0
ENDCHAR
STARTCHAR 0304
ENCODING 772
SWIDTH 0 0
DWIDTH 0 0
BBX 1 1 3 7
BITMAP
80
ENDCHAR
STARTCHAR 0306
ENCODING 774
SWIDTH 0 0
DWIDTH 0 0
BBX 2 1 3 7
BITMAP
C0
ENDCHAR
STARTCHAR 0307
ENCODING 775
SWIDTH 0 0
DWIDTH 0 0
BBX 1 1 3 7
BITMAP
80
ENDCHAR
STARTCHAR 0308
ENCODING 776
SWIDTH 0 0
DWIDTH 0 0
BBX 3 1 2 7
BITMAP
A0
ENDCHAR
STARTCHAR 0309
ENCODING 777
SWIDTH 0 0
DWIDTH 0 0
BBX 1 1 3 7
BITMAP
80
ENDCHAR
STARTCHAR 030A
ENCODING 778
SWIDTH 0 0
DWIDTH 0 0
BBX 2 2 2 7
BITMAP
40
C0
ENDCHAR
STARTCHAR 030B
ENCODING 779
SWIDTH 0 0
DWIDTH 0 0
BBX 1 1 3 7
BITMAP
80
ENDCHAR
STARTCHAR 030C
ENCODING 780
SWIDTH 0 0
DWIDTH 0 0
BBX 2 1 2 7
BITMAP
C0
ENDCHAR
STARTCHAR 030F
ENCODING 783
SWIDTH 0 0
DWIDTH 0 0
BBX 0 0 1 7
BITMAP
ENDCHAR
STARTCHAR 0311
ENCODING 785
SWIDTH 0 0
DWIDTH 0 0
BBX 2 1 3 7
BITMAP
C0
ENDCHAR
STARTCHAR 0312
ENCODING 786
SWIDTH 0 0
DWIDTH 0 0
BBX 0 0 3 7
BITMAP
ENDCHAR
STARTCHAR 031B
ENCODING 795
SWIDTH 0 0
DWIDTH 0 0
BBX 0 0 3 6
BITMAP
ENDCHAR
STARTCHAR 0323
ENCODING 803
SWIDTH 0 0
DWIDTH 0 0
BBX 1 1 3 -2
BITMAP
80
ENDCHAR
STARTCHAR 0324
ENCODING 804
SWIDTH 0 0
DWIDTH 0 0
BBX 1 1 2 -2
BITMAP
80
ENDCHAR
STARTCHAR 0326
ENCODING 806
SWIDTH 0 0
DWIDTH 0 0
BBX 1 1 3 -3
BITMAP
80
ENDCHAR
STARTCHAR 0327
ENCODING 807
SWIDTH 0 0
DWIDTH 0 0
BBX 1 1 3 -1
BITMAP
80
ENDCHAR
STARTCHAR 0328
ENCODING 808
SWIDTH 0 0
DWIDTH 0 0
BBX 1 1 2 -1
BITMAP
80
ENDCHAR
STARTCHAR 032E
ENCODING 814
SWIDTH 0 0
DWIDTH 0 0
BBX 2 1 3 -2
BITMAP
C0
ENDCHAR
STARTCHAR 0331
ENCODING 817
SWIDTH 0 0
DWIDTH 0 0
BBX 1 1 3 -2
BITMAP
80
ENDCHAR
STARTCHAR 0335
ENCODING 821
SWIDTH 0 0
DWIDTH 0 0
BBX 2 1 2 4
BITMAP
C0
ENDCHAR
STARTCHAR 0336
ENCODING 822
SWIDTH 0 0
DWIDTH 0 0
BBX 7 1 1 4
BITMAP
FE
ENDCHAR
STARTCHAR 0337
ENCODING 823
SWIDTH 0 0
DWIDTH 0 0
BBX 0 0 1 3
BITMAP
ENDCHAR
STARTCHAR 0338
ENCODING 824
SWIDTH 0 0
DWIDTH 0 0
BBX 4 6 1 0
BITMAP
10
10
20
40
40
80
ENDCHAR
STARTCHAR 0394
ENCODING 916
SWIDTH 630 0
DWIDTH 7 0
BBX 7 8 0 0
BITMAP
10
28
28
48
44
44
82
FE
ENDCHAR
STARTCHAR 03A9
ENCODING 937
SWIDTH 900 0
DWIDTH 10 0
BBX 9 8 0 0
BITMAP
1E00
6100
4080
8080
8080
4080
4100
6180
ENDCHAR
STARTCHAR 03BC
ENCODING 956
SWIDTH 630 0
DWIDTH 7 0
BBX 5 8 1 -2
BITMAP
80
88
88
88
88
90
E0
80
ENDCHAR
STARTCHAR 03C0
ENCODING 960
SWIDTH 630 0
DWIDTH 7 0
BBX 7 5 0 0
BITMAP
7E
A4
24
24
44
ENDCHAR
STARTCHAR 0400
ENCODING 1024
SWIDTH 630 0
DWIDTH 7 0
BBX 4 8 2 2
BITMAP
F0
80
80
80
E0
80
80
F0
ENDCHAR
STARTCHAR 0401
ENCODING 1025
SWIDTH 630 0
DWIDTH 7 0
BBX 4 8 2 1
BITMAP
F0
80
80
80
E0
80
80
F0
ENDCHAR
STARTCHAR 0402
ENCODING 1026
SWIDTH 810 0
DWIDTH 9 0
BBX 7 8 1 0
BITMAP
F0
40
40
4C
52
42
42
06
ENDCHAR
STARTCHAR 0403
ENCODING 1027
SWIDTH 540 0
DWIDTH 6 0
BBX 3 8 2 1
BITMAP
40
A0
80
80
80
80
80
80
ENDCHAR
STARTCHAR 0404
ENCODING 1028
SWIDTH 630 0
DWIDTH 7 0
BBX 6 8 1 0
BITMAP
38
C0
80
80
F0
80
80
7C
ENDCHAR
STARTCHAR 0405
ENCODING 1029
SWIDTH 540 0
DWIDTH 6 0
BBX 5 8 1 0
BITMAP
70
80
80
80
70
08
08
F0
ENDCHAR
STARTCHAR 0406
ENCODING 1030
SWIDTH 270 0
DWIDTH 3 0
BBX 1 6 1 1
BITMAP
80
80
80
80
80
80
ENDCHAR
STARTCHAR 0407
ENCODING 1031
SWIDTH 270 0
DWIDTH 3 0
BBX 1 8 1 1
BITMAP
80
80
80
80
80
80
80
80
ENDCHAR
STARTCHAR 0408
ENCODING 1032
SWIDTH 450 0
DWIDTH 5 0
BBX 3 8 1 0
BITMAP
60
20
20
20
20
20
20
E0
ENDCHAR
STARTCHAR 0409
ENCODING 1033
SWIDTH 1170 0
DWIDTH 13 0
BBX 12 8 1 0
BITMAP
FC00
8400
8400
87C0
8420
8410
8420
87E0
ENDCHAR
STARTCHAR 040A
ENCODING 1034
SWIDTH 1170 0
DWIDTH 13 0
BBX 11 8 2 0
BITMAP
0800
8800
8800
8800
FBC0
8820
8820
0FC0
ENDCHAR
STARTCHAR 040B
ENCODING 1035
SWIDTH 810 0
DWIDTH 9 0
BBX 7 7 1 0
BITMAP
F0
40
40
4C
72
42
42
ENDCHAR
STARTCHAR 040C
ENCODING 1036
SWIDTH 630 0
DWIDTH 7 0
BBX 5 9 2 1
BITMAP
40
00
90
A0
80
80
A0
90
08
ENDCHAR
STARTCHAR 040D
ENCODING 1037
SWIDTH 810 0
DWIDTH 9 0
BBX 6 10 2 0
BITMAP
40
20
04
8C
94
A4
C4
C4
84
84
ENDCHAR
STARTCHAR 040E
ENCODING 1038
SWIDTH 630 0
DWIDTH 7 0
BBX 6 9 0 1
BITMAP
10
80
84
44
48
28
10
10
60
ENDCHAR
STARTCHAR 040F
ENCODING 1039
SWIDTH 720 0
DWIDTH 8 0
BBX 5 9 2 -1
BITMAP
88
88
88
88
88
88
88
70
20
ENDCHAR
STARTCHAR 0410
ENCODING 1040
SWIDTH 630 0
DWIDTH 7 0
BBX 7 8 0 0
BITMAP
10
18
28
24
44
7E
82
80
ENDCHAR
STARTCHAR 0411
ENCODING 1041
SWIDTH 630 0
DWIDTH 7 0
BBX 5 8 2 0
BITMAP
F0
80
80
80
F8
88
88
F0
ENDCHAR
STARTCHAR 0412
ENCODING 1042
SWIDTH 720 0
DWIDTH 8 0
BBX 5 8 2 0
BITMAP
F0
88
88
88
F8
88
88
F8
ENDCHAR
STARTCHAR 0413
ENCODING 1043
SWIDTH 540 0
DWIDTH 6 0
BBX 3 7 2 0
BITMAP
E0
80
80
80
80
80
80
ENDCHAR
STARTCHAR 0414
ENCODING 1044
SWIDTH 720 0
DWIDTH 8 0
BBX 8 9 0 -2
BITMAP
7E
42
42
42
42
42
42
00
FF
ENDCHAR
STARTCHAR 0415
ENCODING 1045
SWIDTH 630 0
DWIDTH 7 0
BBX 4 8 2 0
BITMAP
F0
80
80
80
E0
80
80
F0
ENDCHAR
STARTCHAR 0416
ENCODING 1046
SWIDTH 900 0
DWIDTH 10 0
BBX 9 8 1 0
BITMAP
0800
8900
8900
4800
2C00
C900
8900
0880
ENDCHAR
STARTCHAR 0417
ENCODING 1047
SWIDTH 540 0
DWIDTH 6 0
BBX 5 8 1 0
BITMAP
F0
08
08
10
30
08
08
F0
ENDCHAR
STARTCHAR 0418
ENCODING 1048
SWIDTH 810 0
DWIDTH 9 0
BBX 6 8 2 0
BITMAP
04
8C
94
A4
C4
C4
84
84
ENDCHAR
STARTCHAR 0419
ENCODING 1049
SWIDTH 810 0
DWIDTH 9 0
BBX 6 9 2 1
BITMAP
20
04
8C
94
A4
C4
C4
84
84
ENDCHAR
STARTCHAR 041A
ENCODING 1050
SWIDTH 630 0
DWIDTH 7 0
BBX 5 7 2 1
BITMAP
90
A0
80
80
A0
90
08
ENDCHAR
STARTCHAR 041B
ENCODING 1051
SWIDTH 720 0
DWIDTH 8 0
BBX 6 8 1 0
BITMAP
FC
84
84
84
84
84
84
80
ENDCHAR
STARTCHAR 041C
ENCODING 1052
SWIDTH 900 0
DWIDTH 10 0
BBX 7 6 2 1
BITMAP
82
86
CA
CA
B2
92
ENDCHAR
STARTCHAR 041D
ENCODING 1053
SWIDTH 810 0
DWIDTH 9 0
BBX 6 8 2 0
BITMAP
04
84
84
84
F4
84
84
04
ENDCHAR
STARTCHAR 041E
ENCODING 1054
SWIDTH 810 0
DWIDTH 9 0
BBX 8 8 1 0
BITMAP
38
C6
82
81
81
81
82
7C
ENDCHAR
STARTCHAR 041F
ENCODING 1055
SWIDTH 810 0
DWIDTH 9 0
BBX 6 7 2 0
BITMAP
FC
84
84
84
84
84
84
ENDCHAR
STARTCHAR 0420
ENCODING 1056
SWIDTH 630 0
DWIDTH 7 0
BBX 5 7 2 0
BITMAP
F0
88
88
88
88
F0
80
ENDCHAR
STARTCHAR 0421
ENCODING 1057
SWIDTH 630 0
DWIDTH 7 0
BBX 6 8 1 0
BITMAP
38
C0
80
80
80
80
80
7C
ENDCHAR
STARTCHAR 0422
ENCODING 1058
SWIDTH 540 0
DWIDTH 6 0
BBX 4 7 1 0
BITMAP
F0
40
40
40
40
40
40
ENDCHAR
STARTCHAR 0423
ENCODING 1059
SWIDTH 630 0
DWIDTH 7 0
BBX 6 8 0 0
BITMAP
80
84
44
48
28
10
10
60
ENDCHAR
STARTCHAR 0424
ENCODING 1060
SWIDTH 810 0
DWIDTH 9 0
BBX 8 7 1 1
BITMAP
FE
91
91
91
91
92
6C
ENDCHAR
STARTCHAR 0425
ENCODING 1061
SWIDTH 540 0
DWIDTH 6 0
BBX 4 6 1 1
BITMAP
90
90
60
60
90
90
ENDCHAR
STARTCHAR 0426
ENCODING 1062
SWIDTH 810 0
DWIDTH 9 0
BBX 7 9 2 -1
BITMAP
88
88
88
88
88
88
88
72
02
ENDCHAR
STARTCHAR 0427
ENCODING 1063
SWIDTH 720 0
DWIDTH 8 0
BBX 5 6 1 1
BITMAP
88
88
88
88
78
08
ENDCHAR
STARTCHAR 0428
ENCODING 1064
SWIDTH 1080 0
DWIDTH 12 0
BBX 9 8 2 0
BITMAP
0080
9080
9080
9080
9080
9080
9080
FF80
ENDCHAR
STARTCHAR 0429
ENCODING 1065
SWIDTH 1080 0
DWIDTH 12 0
BBX 10 9 2 -2
BITMAP
0080
9080
9080
9080
9080
9080
9080
9080
6F40
ENDCHAR
STARTCHAR 042A
ENCODING 1066
SWIDTH 720 0
DWIDTH 8 0
BBX 7 8 1 0
BITMAP
C0
40
40
7C
42
42
42
7C
ENDCHAR
STARTCHAR 042B
ENCODING 1067
SWIDTH 900 0
DWIDTH 10 0
BBX 7 7 2 1
BITMAP
82
82
F2
8A
8A
8A
F0
ENDCHAR
STARTCHAR 042C
ENCODING 1068
SWIDTH 630 0
DWIDTH 7 0
BBX 5 7 2 1
BITMAP
80
80
F0
88
88
88
F0
ENDCHAR
STARTCHAR 042D
ENCODING 1069
SWIDTH 630 0
DWIDTH 7 0
BBX 6 8 1 0
BITMAP
F0
08
04
04
3C
04
08
F0
ENDCHAR
STARTCHAR 042E
ENCODING 1070
SWIDTH 1080 0
DWIDTH 12 0
BBX 9 8 2 0
BITMAP
0E00
B100
C080
C080
C080
C080
A100
1E00
ENDCHAR
STARTCHAR 042F
ENCODING 1071
SWIDTH 720 0
DWIDTH 8 0
BBX 6 8 1 0
BITMAP
7C
84
84
84
84
7C
84
84
ENDCHAR
STARTCHAR 0430
ENCODING 1072
SWIDTH 540 0
DWIDTH 6 0
BBX 4 6 1 0
BITMAP
E0
10
10
F0
90
E0
ENDCHAR
STARTCHAR 0431
ENCODING 1073
SWIDTH 630 0
DWIDTH 7 0
BBX 6 8 1 0
BITMAP
70
80
B0
C8
88
84
88
70
ENDCHAR
STARTCHAR 0432
ENCODING 1074
SWIDTH 540 0
DWIDTH 6 0
BBX 5 6 1 0
BITMAP
F0
88
90
F0
88
F0
ENDCHAR
STARTCHAR 0433
ENCODING 1075
SWIDTH 360 0
DWIDTH 4 0
BBX 3 6 1 0
BITMAP
E0
80
80
80
80
80
ENDCHAR
STARTCHAR 0434
ENCODING 1076
SWIDTH 540 0
DWIDTH 6 0
BBX 5 7 0 -1
BITMAP
78
48
48
48
48
00
F8
ENDCHAR
STARTCHAR 0435
ENCODING 1077
SWIDTH 540 0
DWIDTH 6 0
BBX 5 6 1 0
BITMAP
70
88
80
F8
80
F0
ENDCHAR
STARTCHAR 0436
ENCODING 1078
SWIDTH 720 0
DWIDTH 8 0
BBX 7 5 1 1
BITMAP
A4
24
60
A4
02
ENDCHAR
STARTCHAR 0437
ENCODING 1079
SWIDTH 450 0
DWIDTH 5 0
BBX 4 6 1 0
BITMAP
E0
10
20
10
10
E0
ENDCHAR
STARTCHAR 0438
ENCODING 1080
SWIDTH 630 0
DWIDTH 7 0
BBX 5 6 1 0
BITMAP
80
98
A8
A8
C8
80
ENDCHAR
STARTCHAR 0439
ENCODING 1081
SWIDTH 630 0
DWIDTH 7 0
BBX 5 8 1 0
BITMAP
40
20
80
98
A8
A8
C8
80
ENDCHAR
STARTCHAR 043A
ENCODING 1082
SWIDTH 540 0
DWIDTH 6 0
BBX 5 6 1 0
BITMAP
80
90
A0
A0
90
88
ENDCHAR
STARTCHAR 043B
ENCODING 1083
SWIDTH 540 0
DWIDTH 6 0
BBX 6 6 0 0
BITMAP
7C
44
44
44
44
84
ENDCHAR
STARTCHAR 043C
ENCODING 1084
SWIDTH 720 0
DWIDTH 8 0
BBX 6 6 1 0
BITMAP
80
84
CC
D4
B4
80
ENDCHAR
STARTCHAR 043D
ENCODING 1085
SWIDTH 630 0
DWIDTH 7 0
BBX 5 6 1 0
BITMAP
80
88
88
F8
88
80
ENDCHAR
STARTCHAR 043E
ENCODING 1086
SWIDTH 540 0
DWIDTH 6 0
BBX 5 6 1 0
BITMAP
70
88
88
88
88
F0
ENDCHAR
STARTCHAR 043F
ENCODING 1087
SWIDTH 630 0
DWIDTH 7 0
BBX 5 6 1 0
BITMAP
F8
88
88
88
88
80
ENDCHAR
STARTCHAR 0440
ENCODING 1088
SWIDTH 630 0
DWIDTH 7 0
BBX 6 8 1 -2
BITMAP
B0
C8
84
84
84
C8
B0
80
ENDCHAR
STARTCHAR 0441
ENCODING 1089
SWIDTH 540 0
DWIDTH 6 0
BBX 4 6 1 0
BITMAP
70
80
80
80
80
F0
ENDCHAR
STARTCHAR 0442
ENCODING 1090
SWIDTH 360 0
DWIDTH 4 0
BBX 3 6 1 0
BITMAP
E0
40
40
40
40
40
ENDCHAR
STARTCHAR 0443
ENCODING 1091
SWIDTH 450 0
DWIDTH 5 0
BBX 6 8 0 -2
BITMAP
84
88
88
50
50
20
20
40
ENDCHAR
STARTCHAR 0444
ENCODING 1092
SWIDTH 720 0
DWIDTH 8 0
BBX 7 8 1 -1
BITMAP
20
78
A4
A2
A2
A4
A8
70
ENDCHAR
STARTCHAR 0445
ENCODING 1093
SWIDTH 450 0
DWIDTH 5 0
BBX 3 4 1 1
BITMAP
A0
C0
40
A0
ENDCHAR
STARTCHAR 0446
ENCODING 1094
SWIDTH 630 0
DWIDTH 7 0
BBX 5 7 1 -1
BITMAP
80
88
88
88
88
88
70
ENDCHAR
STARTCHAR 0447
ENCODING 1095
SWIDTH 540 0
DWIDTH 6 0
BBX 4 4 1 1
BITMAP
90
90
90
70
ENDCHAR
STARTCHAR 0448
ENCODING 1096
SWIDTH 900 0
DWIDTH 10 0
BBX 8 6 1 0
BITMAP
80
91
91
91
91
FF
ENDCHAR
STARTCHAR 0449
ENCODING 1097
SWIDTH 900 0
DWIDTH 10 0
BBX 9 7 1 -1
BITMAP
8000
9100
9100
9100
9100
9100
6E80
ENDCHAR
STARTCHAR 044A
ENCODING 1098
SWIDTH 540 0
DWIDTH 6 0
BBX 5 6 1 0
BITMAP
80
80
70
88
88
F0
ENDCHAR
STARTCHAR 044B
ENCODING 1099
SWIDTH 720 0
DWIDTH 8 0
BBX 6 6 1 0
BITMAP
80
84
E4
94
94
F0
ENDCHAR
STARTCHAR 044C
ENCODING 1100
SWIDTH 450 0
DWIDTH 5 0
BBX 4 6 1 0
BITMAP
80
80
E0
90
90
F0
ENDCHAR
STARTCHAR 044D
ENCODING 1101
SWIDTH 540 0
DWIDTH 6 0
BBX 5 6 1 0
BITMAP
E0
10
08
28
10
E0
ENDCHAR
STARTCHAR 044E
ENCODING 1102
SWIDTH 810 0
DWIDTH 9 0
BBX 8 6 1 0
BITMAP
9C
A2
C1
C1
A2
9E
ENDCHAR
STARTCHAR 044F
ENCODING 1103
SWIDTH 540 0
DWIDTH 6 0
BBX 4 5 1 0
BITMAP
70
90
90
90
70
ENDCHAR
STARTCHAR 0450
ENCODING 1104
SWIDTH 540 0
DWIDTH 6 0
BBX 5 8 1 0
BITMAP
40
20
70
88
80
F8
80
F0
ENDCHAR
STARTCHAR 0451
ENCODING 1105
SWIDTH 540 0
DWIDTH 6 0
BBX 5 8 1 0
BITMAP
50
00
70
88
80
F8
80
F0
ENDCHAR
STARTCHAR 0452
ENCODING 1106
SWIDTH 630 0
DWIDTH 7 0
BBX 5 10 1 -2
BITMAP
80
E0
F0
88
88
88
88
88
08
08
ENDCHAR
STARTCHAR 0453
ENCODING 1107
SWIDTH 360 0
DWIDTH 4 0
BBX 3 6 1 2
BITMAP
E0
80
80
80
80
80
ENDCHAR
STARTCHAR 0454
ENCODING 1108
SWIDTH 540 0
DWIDTH 6 0
BBX 4 6 1 0
BITMAP
70
80
80
C0
80
F0
ENDCHAR
STARTCHAR 0455
ENCODING 1109
SWIDTH 450 0
DWIDTH 5 0
BBX 4 6 1 0
BITMAP
E0
80
80
60
10
70
ENDCHAR
STARTCHAR 0456
ENCODING 1110
SWIDTH 180 0
DWIDTH 2 0
BBX 1 8 1 0
BITMAP
80
00
80
80
80
80
80
80
ENDCHAR
STARTCHAR 0457
ENCODING 1111
SWIDTH 180 0
DWIDTH 2 0
BBX 1 6 1 2
BITMAP
80
80
80
80
80
80
ENDCHAR
STARTCHAR 0458
ENCODING 1112
SWIDTH 180 0
DWIDTH 2 0
BBX 2 10 0 -2
BITMAP
40
00
40
40
40
40
40
40
40
80
ENDCHAR
STARTCHAR 0459
ENCODING 1113
SWIDTH 810 0
DWIDTH 9 0
BBX 9 6 0 0
BITMAP
7C00
4400
4700
4480
4480
8780
ENDCHAR
STARTCHAR 045A
ENCODING 1114
SWIDTH 900 0
DWIDTH 10 0
BBX 9 6 1 0
BITMAP
8000
8800
8800
FF80
8880
8F00
ENDCHAR
STARTCHAR 045B
ENCODING 1115
SWIDTH 630 0
DWIDTH 7 0
BBX 5 8 1 0
BITMAP
80
E0
F0
88
88
88
88
80
ENDCHAR
STARTCHAR 045C
ENCODING 1116
SWIDTH 540 0
DWIDTH 6 0
BBX 5 6 1 2
BITMAP
80
90
A0
A0
90
88
ENDCHAR
STARTCHAR 045D
ENCODING 1117
SWIDTH 630 0
DWIDTH 7 0
BBX 5 7 1 1
BITMAP
20
80
98
A8
A8
C8
80
ENDCHAR
STARTCHAR 045E
ENCODING 1118
SWIDTH 450 0
DWIDTH 5 0
BBX 6 10 0 -2
BITMAP
40
20
84
88
88
50
50
20
20
40
ENDCHAR
STARTCHAR 045F
ENCODING 1119
SWIDTH 540 0
DWIDTH 6 0
BBX 5 7 1 -1
BITMAP
88
88
88
88
88
88
70
ENDCHAR
STARTCHAR 0462
ENCODING 1122
SWIDTH 720 0
DWIDTH 8 0
BBX 8 8 0 0
BITMAP
20
F8
20
3E
21
21
21
3E
ENDCHAR
STARTCHAR 0463
ENCODING 1123
SWIDTH 540 0
DWIDTH 6 0
BBX 5 7 1 1
BITMAP
80
C0
80
60
98
88
F0
ENDCHAR
STARTCHAR 046A
ENCODING 1130
SWIDTH 810 0
DWIDTH 9 0
BBX 9 8 0 0
BITMAP
FF00
4200
2400
1800
2E00
4900
8900
0080
ENDCHAR
STARTCHAR 046B
ENCODING 1131
SWIDTH 630 0
DWIDTH 7 0
BBX 6 6 0 0
BITMAP
FC
48
30
58
94
10
ENDCHAR
STARTCHAR 0472
ENCODING 1138
SWIDTH 810 0
DWIDTH 9 0
BBX 8 8 1 0
BITMAP
38
C6
82
81
FF
81
82
7C
ENDCHAR
STARTCHAR 0473
ENCODING 1139
SWIDTH 630 0
DWIDTH 7 0
BBX 5 6 1 0
BITMAP
70
88
88
F8
88
F0
ENDCHAR
STARTCHAR 0474
ENCODING 1140
SWIDTH 720 0
DWIDTH 8 0
BBX 7 8 0 0
BITMAP
80
86
44
48
48
28
30
10
ENDCHAR
STARTCHAR 0475
ENCODING 1141
SWIDTH 450 0
DWIDTH 5 0
BBX 5 6 0 0
BITMAP
88
88
90
50
50
20
ENDCHAR
STARTCHAR 048A
ENCODING 1162
SWIDTH 810 0
DWIDTH 9 0
BBX 7 10 2 -1
BITMAP
20
04
8C
94
A4
C4
C4
84
84
02
ENDCHAR
STARTCHAR 048B
ENCODING 1163
SWIDTH 630 0
DWIDTH 7 0
BBX 5 8 1 -1
BITMAP
40
20
80
98
A8
A8
C8
80
ENDCHAR
STARTCHAR 048C
ENCODING 1164
SWIDTH 720 0
DWIDTH 8 0
BBX 7 7 0 1
BITMAP
F8
40
7C
42
42
42
7E
ENDCHAR
STARTCHAR 048D
ENCODING 1165
SWIDTH 540 0
DWIDTH 6 0
BBX 5 5 1 1
BITMAP
C0
60
98
88
F0
ENDCHAR
STARTCHAR 048E
ENCODING 1166
SWIDTH 720 0
DWIDTH 8 0
BBX 5 7 2 0
BITMAP
F0
88
88
A8
A8
D0
80
ENDCHAR
STARTCHAR 048F
ENCODING 1167
SWIDTH 630 0
DWIDTH 7 0
BBX 6 8 1 -2
BITMAP
B0
C8
84
84
84
C8
B4
80
ENDCHAR
STARTCHAR 0490
ENCODING 1168
SWIDTH 540 0
DWIDTH 6 0
BBX 3 7 2 1
BITMAP
E0
80
80
80
80
80
80
ENDCHAR
STARTCHAR 0491
ENCODING 1169
SWIDTH 360 0
DWIDTH 4 0
BBX 4 7 1 0
BITMAP
10
E0
80
80
80
80
80
ENDCHAR
STARTCHAR 0492
ENCODING 1170
SWIDTH 540 0
DWIDTH 6 0
BBX 4 7 1 0
BITMAP
70
80
80
80
E0
80
80
ENDCHAR
STARTCHAR 0493
ENCODING 1171
SWIDTH 450 0
DWIDTH 5 0
BBX 3 6 1 0
BITMAP
E0
80
80
C0
80
80
ENDCHAR
STARTCHAR 0494
ENCODING 1172
SWIDTH 630 0
DWIDTH 7 0
BBX 5 9 2 -2
BITMAP
E0
80
80
80
F0
88
88
08
10
ENDCHAR
STARTCHAR 0495
ENCODING 1173
SWIDTH 540 0
DWIDTH 6 0
BBX 5 8 1 -2
BITMAP
E0
80
80
F0
88
88
08
10
ENDCHAR
STARTCHAR 0496
ENCODING 1174
SWIDTH 990 0
DWIDTH 11 0
BBX 9 8 1 -2
BITMAP
0800
8900
8900
4800
2C00
C900
8900
0880
ENDCHAR
STARTCHAR 0497
ENCODING 1175
SWIDTH 810 0
DWIDTH 9 0
BBX 7 5 1 0
BITMAP
A4
24
60
A4
02
ENDCHAR
STARTCHAR 0498
ENCODING 1176
SWIDTH 540 0
DWIDTH 6 0
BBX 5 9 1 -2
BITMAP
F0
08
08
10
30
08
08
90
60
ENDCHAR
STARTCHAR 0499
ENCODING 1177
SWIDTH 450 0
DWIDTH 5 0
BBX 4 7 1 -1
BITMAP
E0
10
20
10
10
20
C0
ENDCHAR
STARTCHAR 049A
ENCODING 1178
SWIDTH 720 0
DWIDTH 8 0
BBX 5 7 2 -1
BITMAP
90
A0
80
80
A0
90
08
ENDCHAR
STARTCHAR 049B
ENCODING 1179
SWIDTH 540 0
DWIDTH 6 0
BBX 6 7 1 -1
BITMAP
80
90
A0
A0
90
80
0C
ENDCHAR
STARTCHAR 049C
ENCODING 1180
SWIDTH 630 0
DWIDTH 7 0
BBX 5 7 2 1
BITMAP
90
90
A0
A0
A0
90
08
ENDCHAR
STARTCHAR 049D
ENCODING 1181
SWIDTH 540 0
DWIDTH 6 0
BBX 5 6 1 0
BITMAP
88
90
80
C0
90
88
ENDCHAR
STARTCHAR 049E
ENCODING 1182
SWIDTH 630 0
DWIDTH 7 0
BBX 7 7 0 1
BITMAP
F4
48
48
48
48
44
02
ENDCHAR
STARTCHAR 049F
ENCODING 1183
SWIDTH 540 0
DWIDTH 6 0
BBX 5 8 1 0
BITMAP
80
80
80
90
A0
A0
90
88
ENDCHAR
STARTCHAR 04A0
ENCODING 1184
SWIDTH 720 0
DWIDTH 8 0
BBX 7 8 1 0
BITMAP
80
44
48
48
40
48
44
02
ENDCHAR
STARTCHAR 04A1
ENCODING 1185
SWIDTH 540 0
DWIDTH 6 0
BBX 5 5 1 1
BITMAP
90
80
80
90
08
ENDCHAR
STARTCHAR 04A2
ENCODING 1186
SWIDTH 810 0
DWIDTH 9 0
BBX 7 9 2 -2
BITMAP
04
84
84
84
F4
84
84
04
02
ENDCHAR
STARTCHAR 04A3
ENCODING 1187
SWIDTH 630 0
DWIDTH 7 0
BBX 5 6 1 -1
BITMAP
80
88
88
F8
88
80
ENDCHAR
STARTCHAR 04A4
ENCODING 1188
SWIDTH 1080 0
DWIDTH 12 0
BBX 9 8 2 0
BITMAP
0780
8400
8400
8400
F400
8400
8400
0400
ENDCHAR
STARTCHAR 04A5
ENCODING 1189
SWIDTH 810 0
DWIDTH 9 0
BBX 8 6 1 0
BITMAP
87
88
88
F8
88
80
ENDCHAR
STARTCHAR 04A6
ENCODING 1190
SWIDTH 1170 0
DWIDTH 13 0
BBX 11 9 2 -2
BITMAP
FC00
8400
8400
8400
85C0
8420
8420
0020
0040
ENDCHAR
STARTCHAR 04A7
ENCODING 1191
SWIDTH 900 0
DWIDTH 10 0
BBX 9 8 1 -2
BITMAP
F800
8800
8800
8B00
8880
8080
0080
0180
ENDCHAR
STARTCHAR 04A8
ENCODING 1192
SWIDTH 900 0
DWIDTH 10 0
BBX 9 8 1 0
BITMAP
0E00
9100
A080
A080
A080
9100
9100
7F00
ENDCHAR
STARTCHAR 04A9
ENCODING 1193
SWIDTH 720 0
DWIDTH 8 0
BBX 7 6 1 0
BITMAP
18
A4
C2
C2
A4
FC
ENDCHAR
STARTCHAR 04AA
ENCODING 1194
SWIDTH 630 0
DWIDTH 7 0
BBX 6 9 1 -2
BITMAP
38
C0
80
80
80
80
80
44
38
ENDCHAR
STARTCHAR 04AB
ENCODING 1195
SWIDTH 540 0
DWIDTH 6 0
BBX 4 7 1 -1
BITMAP
70
80
80
80
80
80
70
ENDCHAR
STARTCHAR 04AC
ENCODING 1196
SWIDTH 540 0
DWIDTH 6 0
BBX 4 10 1 -2
BITMAP
F0
40
40
40
40
40
40
00
10
10
ENDCHAR
STARTCHAR 04AD
ENCODING 1197
SWIDTH 360 0
DWIDTH 4 0
BBX 3 6 1 -1
BITMAP
E0
40
40
40
40
40
ENDCHAR
STARTCHAR 04AE
ENCODING 1198
SWIDTH 540 0
DWIDTH 6 0
BBX 7 8 0 0
BITMAP
82
84
48
48
30
10
10
10
ENDCHAR
STARTCHAR 04AF
ENCODING 1199
SWIDTH 450 0
DWIDTH 5 0
BBX 6 6 0 -2
BITMAP
84
88
88
50
50
20
ENDCHAR
STARTCHAR 04B0
ENCODING 1200
SWIDTH 540 0
DWIDTH 6 0
BBX 7 8 0 0
BITMAP
82
84
48
48
30
18
10
10
ENDCHAR
STARTCHAR 04B1
ENCODING 1201
SWIDTH 450 0
DWIDTH 5 0
BBX 6 7 0 -2
BITMAP
84
88
88
50
50
20
10
ENDCHAR
STARTCHAR 04B2
ENCODING 1202
SWIDTH 630 0
DWIDTH 7 0
BBX 4 6 1 -1
BITMAP
90
90
60
60
90
90
ENDCHAR
STARTCHAR 04B3
ENCODING 1203
SWIDTH 450 0
DWIDTH 5 0
BBX 3 4 1 0
BITMAP
A0
C0
40
A0
ENDCHAR
STARTCHAR 04B4
ENCODING 1204
SWIDTH 900 0
DWIDTH 10 0
BBX 8 9 1 -2
BITMAP
F0
41
41
41
41
41
41
41
1E
ENDCHAR
STARTCHAR 04B5
ENCODING 1205
SWIDTH 720 0
DWIDTH 8 0
BBX 7 7 1 -1
BITMAP
E4
44
44
44
44
44
3A
ENDCHAR
STARTCHAR 04B6
ENCODING 1206
SWIDTH 720 0
DWIDTH 8 0
BBX 7 8 1 -1
BITMAP
88
88
88
88
78
08
00
02
ENDCHAR
STARTCHAR 04B7
ENCODING 1207
SWIDTH 540 0
DWIDTH 6 0
BBX 4 4 1 0
BITMAP
90
90
90
70
ENDCHAR
STARTCHAR 04B8
ENCODING 1208
SWIDTH 720 0
DWIDTH 8 0
BBX 5 6 1 1
BITMAP
88
88
A8
A8
78
28
ENDCHAR
STARTCHAR 04B9
ENCODING 1209
SWIDTH 540 0
DWIDTH 6 0
BBX 4 4 1 1
BITMAP
90
90
D0
30
ENDCHAR
STARTCHAR 04BA
ENCODING 1210
SWIDTH 720 0
DWIDTH 8 0
BBX 5 6 2 1
BITMAP
80
80
F0
88
88
88
ENDCHAR
STARTCHAR 04BB
ENCODING 1211
SWIDTH 630 0
DWIDTH 7 0
BBX 5 8 1 0
BITMAP
80
80
F0
88
88
88
88
80
ENDCHAR
STARTCHAR 04BC
ENCODING 1212
SWIDTH 900 0
DWIDTH 10 0
BBX 10 8 0 0
BITMAP
0F00
1080
A040
A040
7F80
2000
2000
1F00
ENDCHAR
STARTCHAR 04BD
ENCODING 1213
SWIDTH 630 0
DWIDTH 7 0
BBX 7 6 0 0
BITMAP
1C
E2
C0
5E
40
3E
ENDCHAR
STARTCHAR 04BE
ENCODING 1214
SWIDTH 900 0
DWIDTH 10 0
BBX 10 9 0 -2
BITMAP
0F00
1080
A040
A040
7F80
2000
2000
1800
0700
ENDCHAR
STARTCHAR 04BF
ENCODING 1215
SWIDTH 630 0
DWIDTH 7 0
BBX 7 7 0 -1
BITMAP
1C
E2
C0
5E
40
22
1C
ENDCHAR
STARTCHAR 04C0
ENCODING 1216
SWIDTH 270 0
DWIDTH 3 0
BBX 1 6 1 1
BITMAP
80
80
80
80
80
80
ENDCHAR
STARTCHAR 04C1
ENCODING 1217
SWIDTH 900 0
DWIDTH 10 0
BBX 9 9 1 1
BITMAP
0800
0800
8900
8900
4800
2C00
C900
8900
0880
ENDCHAR
STARTCHAR 04C2
ENCODING 1218
SWIDTH 720 0
DWIDTH 8 0
BBX 7 8 1 0
BITMAP
08
10
00
A4
24
60
A4
02
ENDCHAR
STARTCHAR 04C3
ENCODING 1219
SWIDTH 630 0
DWIDTH 7 0
BBX 5 9 2 -1
BITMAP
90
A0
80
A0
90
90
08
08
08
ENDCHAR
STARTCHAR 04C4
ENCODING 1220
SWIDTH 540 0
DWIDTH 6 0
BBX 5 8 1 -2
BITMAP
80
90
A0
80
90
90
08
18
ENDCHAR
STARTCHAR 04C6
ENCODING 1222
SWIDTH 540 0
DWIDTH 6 0
BBX 6 6 0 -1
BITMAP
7C
44
44
44
44
84
ENDCHAR
STARTCHAR 04C7
ENCODING 1223
SWIDTH 810 0
DWIDTH 9 0
BBX 6 10 2 -2
BITMAP
04
84
84
84
FC
84
84
04
04
08
ENDCHAR
STARTCHAR 04C8
ENCODING 1224
SWIDTH 630 0
DWIDTH 7 0
BBX 5 8 1 -2
BITMAP
80
88
88
F8
88
88
08
08
ENDCHAR
STARTCHAR 04C9
ENCODING 1225
SWIDTH 810 0
DWIDTH 9 0
BBX 7 9 2 -2
BITMAP
04
84
84
84
F4
84
84
04
02
ENDCHAR
STARTCHAR 04CA
ENCODING 1226
SWIDTH 630 0
DWIDTH 7 0
BBX 5 6 1 -1
BITMAP
80
88
88
F8
88
80
ENDCHAR
STARTCHAR 04CB
ENCODING 1227
SWIDTH 720 0
DWIDTH 8 0
BBX 5 6 1 -1
BITMAP
88
88
88
88
78
08
ENDCHAR
STARTCHAR 04CC
ENCODING 1228
SWIDTH 540 0
DWIDTH 6 0
BBX 4 4 1 0
BITMAP
90
90
90
70
ENDCHAR
STARTCHAR 04CD
ENCODING 1229
SWIDTH 900 0
DWIDTH 10 0
BBX 7 6 2 -1
BITMAP
82
86
CA
CA
B2
92
ENDCHAR
STARTCHAR 04CE
ENCODING 1230
SWIDTH 720 0
DWIDTH 8 0
BBX 6 6 1 -1
BITMAP
80
84
CC
D4
B4
80
ENDCHAR
STARTCHAR 04CF
ENCODING 1231
SWIDTH 180 0
DWIDTH 2 0
BBX 1 8 1 0
BITMAP
80
80
80
80
80
80
80
80
ENDCHAR
STARTCHAR 04D0
ENCODING 1232
SWIDTH 630 0
DWIDTH 7 0
BBX 7 10 0 0
BITMAP
24
18
10
18
28
24
44
7E
82
80
ENDCHAR
STARTCHAR 04D1
ENCODING 1233
SWIDTH 540 0
DWIDTH 6 0
BBX 4 7 1 1
BITMAP
20
E0
10
10
F0
90
E0
ENDCHAR
STARTCHAR 04D2
ENCODING 1234
SWIDTH 630 0
DWIDTH 7 0
BBX 7 8 0 1
BITMAP
10
18
28
24
44
7E
82
80
ENDCHAR
STARTCHAR 04D3
ENCODING 1235
SWIDTH 540 0
DWIDTH 6 0
BBX 4 6 1 2
BITMAP
E0
10
10
F0
90
E0
ENDCHAR
STARTCHAR 04D4
ENCODING 1236
SWIDTH 900 0
DWIDTH 10 0
BBX 9 8 0 0
BITMAP
0780
0C00
1400
2400
2780
3C00
C400
8780
ENDCHAR
STARTCHAR 04D5
ENCODING 1237
SWIDTH 900 0
DWIDTH 10 0
BBX 9 6 1 0
BITMAP
E700
1880
1000
F780
8800
FF80
ENDCHAR
STARTCHAR 04D6
ENCODING 1238
SWIDTH 630 0
DWIDTH 7 0
BBX 4 10 2 0
BITMAP
90
60
90
80
80
80
E0
80
80
F0
ENDCHAR
STARTCHAR 04D7
ENCODING 1239
SWIDTH 540 0
DWIDTH 6 0
BBX 5 8 1 0
BITMAP
10
20
70
88
80
F8
80
F0
ENDCHAR
STARTCHAR 04D8
ENCODING 1240
SWIDTH 810 0
DWIDTH 9 0
BBX 7 8 1 0
BITMAP
38
44
02
02
FE
82
82
7C
ENDCHAR
STARTCHAR 04D9
ENCODING 1241
SWIDTH 540 0
DWIDTH 6 0
BBX 5 6 1 0
BITMAP
E0
10
08
F8
88
F0
ENDCHAR
STARTCHAR 04DA
ENCODING 1242
SWIDTH 810 0
DWIDTH 9 0
BBX 7 8 1 1
BITMAP
38
44
02
02
FE
82
82
7C
ENDCHAR
STARTCHAR 04DB
ENCODING 1243
SWIDTH 540 0
DWIDTH 6 0
BBX 5 8 1 0
BITMAP
40
00
E0
10
08
F8
88
F0
ENDCHAR
STARTCHAR 04DC
ENCODING 1244
SWIDTH 900 0
DWIDTH 10 0
BBX 9 8 1 1
BITMAP
0800
8900
8900
4800
2C00
C900
8900
0880
ENDCHAR
STARTCHAR 04DD
ENCODING 1245
SWIDTH 720 0
DWIDTH 8 0
BBX 7 8 1 0
BITMAP
28
00
00
A4
24
60
A4
02
ENDCHAR
STARTCHAR 04DE
ENCODING 1246
SWIDTH 540 0
DWIDTH 6 0
BBX 5 8 1 1
BITMAP
F0
08
08
10
30
08
08
F0
ENDCHAR
STARTCHAR 04DF
ENCODING 1247
SWIDTH 450 0
DWIDTH 5 0
BBX 4 8 1 0
BITMAP
A0
00
E0
10
20
10
10
E0
ENDCHAR
STARTCHAR 04E0
ENCODING 1248
SWIDTH 540 0
DWIDTH 6 0
BBX 5 8 1 0
BITMAP
78
10
20
40
30
08
08
F0
ENDCHAR
STARTCHAR 04E1
ENCODING 1249
SWIDTH 450 0
DWIDTH 5 0
BBX 4 8 1 -2
BITMAP
F0
20
40
80
60
10
10
E0
ENDCHAR
STARTCHAR 04E2
ENCODING 1250
SWIDTH 810 0
DWIDTH 9 0
BBX 6 9 2 0
BITMAP
20
04
8C
94
A4
C4
C4
84
84
ENDCHAR
STARTCHAR 04E3
ENCODING 1251
SWIDTH 630 0
DWIDTH 7 0
BBX 5 7 1 0
BITMAP
20
80
98
A8
A8
C8
80
ENDCHAR
STARTCHAR 04E4
ENCODING 1252
SWIDTH 810 0
DWIDTH 9 0
BBX 6 8 2 1
BITMAP
04
8C
94
A4
C4
C4
84
84
ENDCHAR
STARTCHAR 04E5
ENCODING 1253
SWIDTH 630 0
DWIDTH 7 0
BBX 5 8 1 0
BITMAP
10
00
80
98
A8
A8
C8
80
ENDCHAR
STARTCHAR 04E6
ENCODING 1254
SWIDTH 810 0
DWIDTH 9 0
BBX 8 8 1 1
BITMAP
38
C6
82
81
81
81
82
7C
ENDCHAR
STARTCHAR 04E7
ENCODING 1255
SWIDTH 540 0
DWIDTH 6 0
BBX 5 8 1 0
BITMAP
50
00
70
88
88
88
88
F0
ENDCHAR
STARTCHAR 04E8
ENCODING 1256
SWIDTH 810 0
DWIDTH 9 0
BBX 8 8 1 0
BITMAP
38
C6
82
81
FF
81
82
7C
ENDCHAR
STARTCHAR 04E9
ENCODING 1257
SWIDTH 630 0
DWIDTH 7 0
BBX 5 6 1 0
BITMAP
70
88
88
F8
88
F0
ENDCHAR
STARTCHAR 04EA
ENCODING 1258
SWIDTH 810 0
DWIDTH 9 0
BBX 8 8 1 1
BITMAP
38
C6
82
81
FF
81
82
7C
ENDCHAR
STARTCHAR 04EB
ENCODING 1259
SWIDTH 630 0
DWIDTH 7 0
BBX 5 8 1 0
BITMAP
50
00
70
88
88
F8
88
F0
ENDCHAR
STARTCHAR 04EC
ENCODING 1260
SWIDTH 630 0
DWIDTH 7 0
BBX 6 8 1 1
BITMAP
F0
08
04
04
3C
04
08
F0
ENDCHAR
STARTCHAR 04ED
ENCODING 1261
SWIDTH 540 0
DWIDTH 6 0
BBX 5 8 1 0
BITMAP
20
00
E0
10
08
28
10
E0
ENDCHAR
STARTCHAR 04EE
ENCODING 1262
SWIDTH 630 0
DWIDTH 7 0
BBX 6 9 0 0
BITMAP
10
80
84
44
48
28
10
10
60
ENDCHAR
STARTCHAR 04EF
ENCODING 1263
SWIDTH 450 0
DWIDTH 5 0
BBX 6 9 0 -2
BITMAP
20
84
88
88
50
50
20
20
40
ENDCHAR
STARTCHAR 04F0
ENCODING 1264
SWIDTH 630 0
DWIDTH 7 0
BBX 6 8 0 1
BITMAP
80
84
44
48
28
10
10
60
ENDCHAR
STARTCHAR 04F1
ENCODING 1265
SWIDTH 450 0
DWIDTH 5 0
BBX 6 10 0 -2
BITMAP
10
00
84
88
88
50
50
20
20
40
ENDCHAR
STARTCHAR 04F2
ENCODING 1266
SWIDTH 630 0
DWIDTH 7 0
BBX 6 10 0 0
BITMAP
04
08
80
84
44
48
28
10
10
60
ENDCHAR
STARTCHAR 04F3
ENCODING 1267
SWIDTH 450 0
DWIDTH 5 0
BBX 6 8 0 0
BITMAP
84
88
88
50
50
20
20
40
ENDCHAR
STARTCHAR 04F4
ENCODING 1268
SWIDTH 720 0
DWIDTH 8 0
BBX 5 6 1 2
BITMAP
88
88
88
88
78
08
ENDCHAR
STARTCHAR 04F5
ENCODING 1269
SWIDTH 540 0
DWIDTH 6 0
BBX 4 7 1 0
BITMAP
20
00
00
90
90
90
70
ENDCHAR
STARTCHAR 04F6
ENCODING 1270
SWIDTH 540 0
DWIDTH 6 0
BBX 3 7 2 -2
BITMAP
E0
80
80
80
80
80
80
ENDCHAR
STARTCHAR 04F7
ENCODING 1271
SWIDTH 360 0
DWIDTH 4 0
BBX 3 6 1 -1
BITMAP
E0
80
80
80
80
80
ENDCHAR
STARTCHAR 04F8
ENCODING 1272
SWIDTH 900 0
DWIDTH 10 0
BBX 7 7 2 2
BITMAP
82
82
F2
8A
8A
8A
F0
ENDCHAR
STARTCHAR 04F9
ENCODING 1273
SWIDTH 720 0
DWIDTH 8 0
BBX 6 8 1 0
BITMAP
28
00
80
84
E4
94
94
F0
ENDCHAR
STARTCHAR 04FA
ENCODING 1274
SWIDTH 540 0
DWIDTH 6 0
BBX 4 10 1 -2
BITMAP
30
80
80
80
E0
80
80
00
00
40
ENDCHAR
STARTCHAR 04FB
ENCODING 1275
SWIDTH 450 0
DWIDTH 5 0
BBX 3 8 1 -2
BITMAP
E0
80
80
C0
80
80
40
80
ENDCHAR
STARTCHAR 04FC
ENCODING 1276
SWIDTH 540 0
DWIDTH 6 0
BBX 5 9 1 -1
BITMAP
90
90
60
40
90
90
08
08
08
ENDCHAR
STARTCHAR 04FD
ENCODING 1277
SWIDTH 450 0
DWIDTH 5 0
BBX 4 8 1 -2
BITMAP
10
A0
C0
80
A0
10
10
10
ENDCHAR
STARTCHAR 04FE
ENCODING 1278
SWIDTH 630 0
DWIDTH 7 0
BBX 5 6 1 1
BITMAP
90
50
60
70
50
88
ENDCHAR
STARTCHAR 04FF
ENCODING 1279
SWIDTH 450 0
DWIDTH 5 0
BBX 3 4 1 1
BITMAP
A0
40
60
A0
ENDCHAR
STARTCHAR 0510
ENCODING 1296
SWIDTH 540 0
DWIDTH 6 0
BBX 5 8 1 0
BITMAP
70
80
80
80
E0
80
80
F8
ENDCHAR
STARTCHAR 0511
ENCODING 1297
SWIDTH 450 0
DWIDTH 5 0
BBX 4 6 1 0
BITMAP
F0
80
80
C0
80
E0
ENDCHAR
STARTCHAR 0512
ENCODING 1298
SWIDTH 720 0
DWIDTH 8 0
BBX 6 10 1 -2
BITMAP
FC
84
84
84
84
84
84
84
04
04
ENDCHAR
STARTCHAR 0513
ENCODING 1299
SWIDTH 540 0
DWIDTH 6 0
BBX 5 8 1 -2
BITMAP
F8
88
88
88
88
08
08
10
ENDCHAR
STARTCHAR 051A
ENCODING 1306
SWIDTH 810 0
DWIDTH 9 0
BBX 8 9 1 -1
BITMAP
38
C6
82
81
81
81
82
44
3E
ENDCHAR
STARTCHAR 051B
ENCODING 1307
SWIDTH 630 0
DWIDTH 7 0
BBX 5 7 1 -2
BITMAP
70
88
88
88
88
98
68
ENDCHAR
STARTCHAR 051C
ENCODING 1308
SWIDTH 990 0
DWIDTH 11 0
BBX 11 8 0 0
BITMAP
0400
8C20
8A40
4A40
5240
5180
3180
2180
ENDCHAR
STARTCHAR 051D
ENCODING 1309
SWIDTH 900 0
DWIDTH 10 0
BBX 10 6 0 0
BITMAP
8840
8C80
9480
5480
6300
2100
ENDCHAR
STARTCHAR 0524
ENCODING 1316
SWIDTH 810 0
DWIDTH 9 0
BBX 6 7 2 -2
BITMAP
FC
84
84
84
84
84
84
ENDCHAR
STARTCHAR 0525
ENCODING 1317
SWIDTH 630 0
DWIDTH 7 0
BBX 5 6 1 -1
BITMAP
F8
88
88
88
88
80
ENDCHAR
STARTCHAR 0526
ENCODING 1318
SWIDTH 720 0
DWIDTH 8 0
BBX 7 9 2 -1
BITMAP
80
80
F0
88
88
88
00
02
02
ENDCHAR
STARTCHAR 0527
ENCODING 1319
SWIDTH 630 0
DWIDTH 7 0
BBX 5 8 1 -1
BITMAP
80
80
F0
88
88
88
88
80
ENDCHAR
STARTCHAR 0528
ENCODING 1320
SWIDTH 810 0
DWIDTH 9 0
BBX 8 10 0 -2
BITMAP
01
41
41
41
7F
41
41
41
40
C0
ENDCHAR
STARTCHAR 0529
ENCODING 1321
SWIDTH 630 0
DWIDTH 7 0
BBX 6 8 0 -2
BITMAP
40
44
44
7C
44
40
40
80
ENDCHAR
STARTCHAR 052E
ENCODING 1326
SWIDTH 720 0
DWIDTH 8 0
BBX 6 8 1 -2
BITMAP
FC
84
84
84
84
84
84
80
ENDCHAR
STARTCHAR 052F
ENCODING 1327
SWIDTH 540 0
DWIDTH 6 0
BBX 6 6 0 -1
BITMAP
7C
44
44
44
44
84
ENDCHAR
STARTCHAR 1E08
ENCODING 7688
SWIDTH 630 0
DWIDTH 7 0
BBX 6 12 1 -2
BITMAP
08
00
38
C0
80
80
80
80
80
44
38
10
ENDCHAR
STARTCHAR 1E09
ENCODING 7689
SWIDTH 540 0
DWIDTH 6 0
BBX 4 8 1 0
BITMAP
70
80
80
80
80
80
60
20
ENDCHAR
STARTCHAR 1E0C
ENCODING 7692
SWIDTH 810 0
DWIDTH 9 0
BBX 7 10 1 -2
BITMAP
F8
86
82
82
82
82
82
84
78
10
ENDCHAR
STARTCHAR 1E0D
ENCODING 7693
SWIDTH 630 0
DWIDTH 7 0
BBX 5 9 1 -1
BITMAP
08
78
88
88
88
88
90
60
20
ENDCHAR
STARTCHAR 1E0E
ENCODING 7694
SWIDTH 810 0
DWIDTH 9 0
BBX 7 10 1 -2
BITMAP
F8
86
82
82
82
82
82
84
78
10
ENDCHAR
STARTCHAR 1E0F
ENCODING 7695
SWIDTH 630 0
DWIDTH 7 0
BBX 5 9 1 -1
BITMAP
08
78
88
88
88
88
90
60
20
ENDCHAR
STARTCHAR 1E14
ENCODING 7700
SWIDTH 630 0
DWIDTH 7 0
BBX 5 9 1 2
BITMAP
30
F0
80
80
80
B0
80
80
F8
ENDCHAR
STARTCHAR 1E15
ENCODING 7701
SWIDTH 540 0
DWIDTH 6 0
BBX 5 7 1 2
BITMAP
20
60
98
80
F8
80
F0
ENDCHAR
STARTCHAR 1E16
ENCODING 7702
SWIDTH 630 0
DWIDTH 7 0
BBX 5 9 1 2
BITMAP
30
F0
80
80
80
B0
80
80
F8
ENDCHAR
STARTCHAR 1E17
ENCODING 7703
SWIDTH 540 0
DWIDTH 6 0
BBX 5 9 1 0
BITMAP
20
00
20
60
98
80
F8
80
F0
ENDCHAR
STARTCHAR 1E1C
ENCODING 7708
SWIDTH 630 0
DWIDTH 7 0
BBX 5 11 1 -1
BITMAP
30
C0
80
80
80
B0
80
80
80
78
10
ENDCHAR
STARTCHAR 1E1D
ENCODING 7709
SWIDTH 540 0
DWIDTH 6 0
BBX 5 10 1 -2
BITMAP
10
20
60
98
80
F8
80
80
70
20
ENDCHAR
STARTCHAR 1E20
ENCODING 7712
SWIDTH 720 0
DWIDTH 8 0
BBX 6 9 1 0
BITMAP
10
38
C0
80
80
80
84
80
7C
ENDCHAR
STARTCHAR 1E21
ENCODING 7713
SWIDTH 630 0
DWIDTH 7 0
BBX 5 9 1 -2
BITMAP
20
70
88
88
88
88
58
28
F8
ENDCHAR
STARTCHAR 1E24
ENCODING 7716
SWIDTH 810 0
DWIDTH 9 0
BBX 7 10 1 -2
BITMAP
82
82
82
82
BA
82
82
82
00
10
ENDCHAR
STARTCHAR 1E25
ENCODING 7717
SWIDTH 630 0
DWIDTH 7 0
BBX 5 10 1 -2
BITMAP
80
80
F0
88
88
88
88
80
00
20
ENDCHAR
STARTCHAR 1E2A
ENCODING 7722
SWIDTH 810 0
DWIDTH 9 0
BBX 7 10 1 -2
BITMAP
82
82
82
82
BA
82
82
82
00
10
ENDCHAR
STARTCHAR 1E2B
ENCODING 7723
SWIDTH 630 0
DWIDTH 7 0
BBX 5 10 1 -2
BITMAP
80
80
F0
88
88
88
88
80
00
60
ENDCHAR
STARTCHAR 1E2E
ENCODING 7726
SWIDTH 270 0
DWIDTH 3 0
BBX 2 11 1 0
BITMAP
40
00
00
80
80
80
80
80
80
80
80
ENDCHAR
STARTCHAR 1E2F
ENCODING 7727
SWIDTH 180 0
DWIDTH 2 0
BBX 3 8 0 1
BITMAP
A0
00
40
40
40
40
40
40
ENDCHAR
STARTCHAR 1E36
ENCODING 7734
SWIDTH 540 0
DWIDTH 6 0
BBX 4 9 1 -2
BITMAP
80
80
80
80
80
80
80
80
70
ENDCHAR
STARTCHAR 1E37
ENCODING 7735
SWIDTH 180 0
DWIDTH 2 0
BBX 1 10 1 -2
BITMAP
80
80
80
80
80
80
80
80
00
80
ENDCHAR
STARTCHAR 1E3A
ENCODING 7738
SWIDTH 540 0
DWIDTH 6 0
BBX 4 10 1 -2
BITMAP
80
80
80
80
80
80
80
80
70
10
ENDCHAR
STARTCHAR 1E3B
ENCODING 7739
SWIDTH 180 0
DWIDTH 2 0
BBX 1 10 1 -2
BITMAP
80
80
80
80
80
80
80
80
00
80
ENDCHAR
STARTCHAR 1E42
ENCODING 7746
SWIDTH 900 0
DWIDTH 10 0
BBX 8 10 1 -2
BITMAP
80
83
C3
A5
A5
99
89
80
00
08
ENDCHAR
STARTCHAR 1E43
ENCODING 7747
SWIDTH 990 0
DWIDTH 11 0
BBX 10 6 1 -2
BITMAP
F380
8C80
8840
8840
8840
8040
ENDCHAR
STARTCHAR 1E44
ENCODING 7748
SWIDTH 810 0
DWIDTH 9 0
BBX 7 8 1 1
BITMAP
82
C2
C2
A2
92
8A
86
82
ENDCHAR
STARTCHAR 1E45
ENCODING 7749
SWIDTH 630 0
DWIDTH 7 0
BBX 5 8 1 0
BITMAP
20
00
F0
88
88
88
88
80
ENDCHAR
STARTCHAR 1E46
ENCODING 7750
SWIDTH 810 0
DWIDTH 9 0
BBX 7 10 1 -2
BITMAP
82
C2
C2
A2
92
8A
86
82
00
10
ENDCHAR
STARTCHAR 1E47
ENCODING 7751
SWIDTH 630 0
DWIDTH 7 0
BBX 5 8 1 -2
BITMAP
F0
88
88
88
88
80
00
20
ENDCHAR
STARTCHAR 1E48
ENCODING 7752
SWIDTH 810 0
DWIDTH 9 0
BBX 7 10 1 -2
BITMAP
82
C2
C2
A2
92
8A
86
82
00
10
ENDCHAR
STARTCHAR 1E49
ENCODING 7753
SWIDTH 630 0
DWIDTH 7 0
BBX 5 8 1 -2
BITMAP
F0
88
88
88
88
80
00
20
ENDCHAR
STARTCHAR 1E4C
ENCODING 7756
SWIDTH 810 0
DWIDTH 9 0
BBX 8 11 1 0
BITMAP
08
00
10
38
C6
82
81
81
82
82
7C
ENDCHAR
STARTCHAR 1E4D
ENCODING 7757
SWIDTH 540 0
DWIDTH 6 0
BBX 5 8 1 1
BITMAP
40
20
70
88
88
88
88
F0
ENDCHAR
STARTCHAR 1E4E
ENCODING 7758
SWIDTH 810 0
DWIDTH 9 0
BBX 8 11 1 0
BITMAP
08
00
10
38
C6
82
81
81
82
82
7C
ENDCHAR
STARTCHAR 1E4F
ENCODING 7759
SWIDTH 540 0
DWIDTH 6 0
BBX 5 9 1 0
BITMAP
50
40
20
70
88
88
88
88
F0
ENDCHAR
STARTCHAR 1E50
ENCODING 7760
SWIDTH 810 0
DWIDTH 9 0
BBX 8 10 1 1
BITMAP
10
10
38
C6
82
81
81
82
82
7C
ENDCHAR
STARTCHAR 1E51
ENCODING 7761
SWIDTH 540 0
DWIDTH 6 0
BBX 5 8 1 1
BITMAP
20
20
70
88
88
88
88
F0
ENDCHAR
STARTCHAR 1E52
ENCODING 7762
SWIDTH 810 0
DWIDTH 9 0
BBX 8 11 1 0
BITMAP
08
00
10
38
C6
82
81
81
82
82
7C
ENDCHAR
STARTCHAR 1E53
ENCODING 7763
SWIDTH 540 0
DWIDTH 6 0
BBX 5 7 1 2
BITMAP
20
70
88
88
88
88
F0
ENDCHAR
STARTCHAR 1E5A
ENCODING 7770
SWIDTH 630 0
DWIDTH 7 0
BBX 6 8 1 -2
BITMAP
F8
84
84
84
84
F8
88
84
ENDCHAR
STARTCHAR 1E5B
ENCODING 7771
SWIDTH 360 0
DWIDTH 4 0
BBX 2 8 1 -2
BITMAP
80
C0
80
80
80
80
00
80
ENDCHAR
STARTCHAR 1E5E
ENCODING 7774
SWIDTH 630 0
DWIDTH 7 0
BBX 6 10 1 -2
BITMAP
F8
84
84
84
84
F8
88
84
00
10
ENDCHAR
STARTCHAR 1E5F
ENCODING 7775
SWIDTH 360 0
DWIDTH 4 0
BBX 2 8 1 -2
BITMAP
80
C0
80
80
80
80
00
80
ENDCHAR
STARTCHAR 1E60
ENCODING 7776
SWIDTH 540 0
DWIDTH 6 0
BBX 5 8 1 1
BITMAP
70
80
80
80
70
08
08
F0
ENDCHAR
STARTCHAR 1E61
ENCODING 7777
SWIDTH 450 0
DWIDTH 5 0
BBX 5 8 0 0
BITMAP
20
00
70
80
80
70
08
70
ENDCHAR
STARTCHAR 1E62
ENCODING 7778
SWIDTH 540 0
DWIDTH 6 0
BBX 5 10 1 -2
BITMAP
70
80
80
80
70
08
08
90
60
20
ENDCHAR
STARTCHAR 1E63
ENCODING 7779
SWIDTH 450 0
DWIDTH 5 0
BBX 5 8 0 -2
BITMAP
70
80
80
70
08
10
60
20
ENDCHAR
STARTCHAR 1E64
ENCODING 7780
SWIDTH 540 0
DWIDTH 6 0
BBX 5 11 1 0
BITMAP
20
10
00
70
80
80
80
70
08
08
F0
ENDCHAR
STARTCHAR 1E65
ENCODING 7781
SWIDTH 450 0
DWIDTH 5 0
BBX 5 9 0 0
BITMAP
20
00
00
70
80
80
70
08
70
ENDCHAR
STARTCHAR 1E66
ENCODING 7782
SWIDTH 540 0
DWIDTH 6 0
BBX 5 9 1 1
BITMAP
20
50
80
80
80
70
08
08
F0
ENDCHAR
STARTCHAR 1E67
ENCODING 7783
SWIDTH 450 0
DWIDTH 5 0
BBX 5 9 0 0
BITMAP
20
40
20
70
80
80
70
08
70
ENDCHAR
STARTCHAR 1E68
ENCODING 7784
SWIDTH 540 0
DWIDTH 6 0
BBX 5 10 1 -1
BITMAP
70
80
80
80
70
08
08
90
60
20
ENDCHAR
STARTCHAR 1E69
ENCODING 7785
SWIDTH 450 0
DWIDTH 5 0
BBX 5 10 0 -2
BITMAP
20
00
70
80
80
70
08
10
60
20
ENDCHAR
STARTCHAR 1E6C
ENCODING 7788
SWIDTH 540 0
DWIDTH 6 0
BBX 4 7 1 -2
BITMAP
F0
40
40
40
40
40
40
ENDCHAR
STARTCHAR 1E6D
ENCODING 7789
SWIDTH 360 0
DWIDTH 4 0
BBX 2 9 1 -2
BITMAP
80
C0
80
80
80
80
80
40
40
ENDCHAR
STARTCHAR 1E6E
ENCODING 7790
SWIDTH 540 0
DWIDTH 6 0
BBX 4 10 1 -2
BITMAP
F0
40
40
40
40
40
40
00
00
20
ENDCHAR
STARTCHAR 1E6F
ENCODING 7791
SWIDTH 360 0
DWIDTH 4 0
BBX 2 9 1 -2
BITMAP
80
C0
80
80
80
80
80
40
40
ENDCHAR
STARTCHAR 1E78
ENCODING 7800
SWIDTH 720 0
DWIDTH 8 0
BBX 6 9 1 2
BITMAP
10
80
84
84
84
84
84
84
78
ENDCHAR
STARTCHAR 1E79
ENCODING 7801
SWIDTH 630 0
DWIDTH 7 0
BBX 5 8 1 1
BITMAP
60
00
00
88
88
88
88
F0
ENDCHAR
STARTCHAR 1E7A
ENCODING 7802
SWIDTH 720 0
DWIDTH 8 0
BBX 6 11 1 0
BITMAP
28
00
10
80
84
84
84
84
84
84
78
ENDCHAR
STARTCHAR 1E7B
ENCODING 7803
SWIDTH 630 0
DWIDTH 7 0
BBX 5 9 1 0
BITMAP
10
00
20
00
88
88
88
88
F0
ENDCHAR
STARTCHAR 1E80
ENCODING 7808
SWIDTH 1080 0
DWIDTH 12 0
BBX 11 9 0 1
BITMAP
0400
0400
8620
4A20
4A40
4940
3140
3180
1080
ENDCHAR
STARTCHAR 1E81
ENCODING 7809
SWIDTH 810 0
DWIDTH 9 0
BBX 9 7 0 1
BITMAP
0800
0800
9880
9500
5500
6500
6200
ENDCHAR
STARTCHAR 1E82
ENCODING 7810
SWIDTH 1080 0
DWIDTH 12 0
BBX 11 9 0 1
BITMAP
0200
0400
8620
4A20
4A40
4940
3140
3180
1080
ENDCHAR
STARTCHAR 1E83
ENCODING 7811
SWIDTH 810 0
DWIDTH 9 0
BBX 9 8 0 0
BITMAP
0400
0000
0800
9880
9500
5500
6500
6200
ENDCHAR
STARTCHAR 1E84
ENCODING 7812
SWIDTH 1080 0
DWIDTH 12 0
BBX 11 8 0 1
BITMAP
0400
8620
4A20
4A40
4940
3140
3180
1080
ENDCHAR
STARTCHAR 1E85
ENCODING 7813
SWIDTH 810 0
DWIDTH 9 0
BBX 9 8 0 0
BITMAP
1400
0000
0800
9880
9500
5500
6500
6200
ENDCHAR
STARTCHAR 1E8E
ENCODING 7822
SWIDTH 540 0
DWIDTH 6 0
BBX 6 8 0 1
BITMAP
80
84
48
48
30
10
10
10
ENDCHAR
STARTCHAR 1E8F
ENCODING 7823
SWIDTH 450 0
DWIDTH 5 0
BBX 5 10 0 -2
BITMAP
20
00
00
88
88
50
50
20
20
40
ENDCHAR
STARTCHAR 1E92
ENCODING 7826
SWIDTH 630 0
DWIDTH 7 0
BBX 5 10 1 -2
BITMAP
78
08
10
20
40
40
80
80
78
20
ENDCHAR
STARTCHAR 1E93
ENCODING 7827
SWIDTH 450 0
DWIDTH 5 0
BBX 4 7 1 -2
BITMAP
70
30
40
40
80
80
60
ENDCHAR
STARTCHAR 1E97
ENCODING 7831
SWIDTH 360 0
DWIDTH 4 0
BBX 3 9 0 0
BITMAP
A0
00
40
60
40
40
40
40
60
ENDCHAR
STARTCHAR 1E9E
ENCODING 7838
SWIDTH 720 0
DWIDTH 8 0
BBX 6 8 1 0
BITMAP
38
C4
88
90
8C
84
84
8C
ENDCHAR
STARTCHAR 1EA0
ENCODING 7840
SWIDTH 630 0
DWIDTH 7 0
BBX 7 8 0 -2
BITMAP
10
28
28
48
44
7C
82
80
ENDCHAR
STARTCHAR 1EA1
ENCODING 7841
SWIDTH 540 0
DWIDTH 6 0
BBX 4 7 1 -2
BITMAP
E0
10
10
F0
90
A0
40
ENDCHAR
STARTCHAR 1EA2
ENCODING 7842
SWIDTH 630 0
DWIDTH 7 0
BBX 7 10 0 0
BITMAP
08
00
10
28
28
48
44
7C
82
80
ENDCHAR
STARTCHAR 1EA3
ENCODING 7843
SWIDTH 540 0
DWIDTH 6 0
BBX 4 8 1 1
BITMAP
20
00
E0
10
10
F0
90
E0
ENDCHAR
STARTCHAR 1EA4
ENCODING 7844
SWIDTH 630 0
DWIDTH 7 0
BBX 7 9 0 1
BITMAP
30
10
28
28
48
44
7C
82
80
ENDCHAR
STARTCHAR 1EA5
ENCODING 7845
SWIDTH 540 0
DWIDTH 6 0
BBX 4 7 1 2
BITMAP
60
E0
10
10
F0
90
E0
ENDCHAR
STARTCHAR 1EA6
ENCODING 7846
SWIDTH 630 0
DWIDTH 7 0
BBX 7 9 0 1
BITMAP
30
10
28
28
48
44
7C
82
80
ENDCHAR
STARTCHAR 1EA7
ENCODING 7847
SWIDTH 540 0
DWIDTH 6 0
BBX 4 9 1 0
BITMAP
20
10
60
E0
10
10
F0
90
E0
ENDCHAR
STARTCHAR 1EA8
ENCODING 7848
SWIDTH 630 0
DWIDTH 7 0
BBX 7 9 0 1
BITMAP
30
10
28
28
48
44
7C
82
80
ENDCHAR
STARTCHAR 1EA9
ENCODING 7849
SWIDTH 540 0
DWIDTH 6 0
BBX 4 9 1 0
BITMAP
10
00
60
E0
10
10
F0
90
E0
ENDCHAR
STARTCHAR 1EAA
ENCODING 7850
SWIDTH 630 0
DWIDTH 7 0
BBX 7 10 0 0
BITMAP
18
30
10
28
28
48
44
7C
82
80
ENDCHAR
STARTCHAR 1EAB
ENCODING 7851
SWIDTH 540 0
DWIDTH 6 0
BBX 4 9 1 0
BITMAP
40
20
60
E0
10
10
F0
90
E0
ENDCHAR
STARTCHAR 1EAC
ENCODING 7852
SWIDTH 630 0
DWIDTH 7 0
BBX 7 10 0 -2
BITMAP
10
20
10
28
28
48
44
7C
82
80
ENDCHAR
STARTCHAR 1EAD
ENCODING 7853
SWIDTH 540 0
DWIDTH 6 0
BBX 4 9 1 -2
BITMAP
60
00
E0
10
10
F0
90
A0
40
ENDCHAR
STARTCHAR 1EAE
ENCODING 7854
SWIDTH 630 0
DWIDTH 7 0
BBX 7 10 0 1
BITMAP
10
18
10
28
28
48
44
7C
82
80
ENDCHAR
STARTCHAR 1EAF
ENCODING 7855
SWIDTH 540 0
DWIDTH 6 0
BBX 4 9 1 0
BITMAP
20
00
20
E0
10
10
F0
90
E0
ENDCHAR
STARTCHAR 1EB0
ENCODING 7856
SWIDTH 630 0
DWIDTH 7 0
BBX 7 10 0 1
BITMAP
10
18
10
28
28
48
44
7C
82
80
ENDCHAR
STARTCHAR 1EB1
ENCODING 7857
SWIDTH 540 0
DWIDTH 6 0
BBX 4 9 1 0
BITMAP
40
00
20
E0
10
10
F0
90
E0
ENDCHAR
STARTCHAR 1EB2
ENCODING 7858
SWIDTH 630 0
DWIDTH 7 0
BBX 7 11 0 0
BITMAP
10
00
18
10
28
28
48
44
7C
82
80
ENDCHAR
STARTCHAR 1EB3
ENCODING 7859
SWIDTH 540 0
DWIDTH 6 0
BBX 4 9 1 0
BITMAP
20
00
20
E0
10
10
F0
90
E0
ENDCHAR
STARTCHAR 1EB4
ENCODING 7860
SWIDTH 630 0
DWIDTH 7 0
BBX 7 10 0 0
BITMAP
18
18
10
28
28
48
44
7C
82
80
ENDCHAR
STARTCHAR 1EB5
ENCODING 7861
SWIDTH 540 0
DWIDTH 6 0
BBX 4 9 1 0
BITMAP
40
20
20
E0
10
10
F0
90
E0
ENDCHAR
STARTCHAR 1EB6
ENCODING 7862
SWIDTH 630 0
DWIDTH 7 0
BBX 7 10 0 -2
BITMAP
20
10
10
28
28
48
44
7C
82
80
ENDCHAR
STARTCHAR 1EB7
ENCODING 7863
SWIDTH 540 0
DWIDTH 6 0
BBX 4 8 1 -1
BITMAP
20
E0
10
10
F0
90
A0
40
ENDCHAR
STARTCHAR 1EB8
ENCODING 7864
SWIDTH 630 0
DWIDTH 7 0
BBX 5 9 1 -2
BITMAP
F0
80
80
80
B0
80
80
80
78
ENDCHAR
STARTCHAR 1EB9
ENCODING 7865
SWIDTH 540 0
DWIDTH 6 0
BBX 5 8 1 -2
BITMAP
60
98
80
F8
80
80
70
20
ENDCHAR
STARTCHAR 1EBA
ENCODING 7866
SWIDTH 630 0
DWIDTH 7 0
BBX 5 10 1 0
BITMAP
10
00
F0
80
80
80
B0
80
80
F8
ENDCHAR
STARTCHAR 1EBB
ENCODING 7867
SWIDTH 540 0
DWIDTH 6 0
BBX 5 9 1 0
BITMAP
20
00
00
60
98
80
F8
80
F0
ENDCHAR
STARTCHAR 1EBC
ENCODING 7868
SWIDTH 630 0
DWIDTH 7 0
BBX 5 10 1 0
BITMAP
20
10
F0
80
80
80
B0
80
80
F8
ENDCHAR
STARTCHAR 1EBD
ENCODING 7869
SWIDTH 540 0
DWIDTH 6 0
BBX 5 8 1 0
BITMAP
40
20
60
98
80
F8
80
F0
ENDCHAR
STARTCHAR 1EBE
ENCODING 7870
SWIDTH 630 0
DWIDTH 7 0
BBX 5 9 1 1
BITMAP
30
F0
80
80
80
B0
80
80
F8
ENDCHAR
STARTCHAR 1EBF
ENCODING 7871
SWIDTH 540 0
DWIDTH 6 0
BBX 5 9 1 0
BITMAP
08
20
00
60
98
80
F8
80
F0
ENDCHAR
STARTCHAR 1EC0
ENCODING 7872
SWIDTH 630 0
DWIDTH 7 0
BBX 5 9 1 1
BITMAP
30
F0
80
80
80
B0
80
80
F8
ENDCHAR
STARTCHAR 1EC1
ENCODING 7873
SWIDTH 540 0
DWIDTH 6 0
BBX 5 8 1 1
BITMAP
30
00
60
98
80
F8
80
F0
ENDCHAR
STARTCHAR 1EC2
ENCODING 7874
SWIDTH 630 0
DWIDTH 7 0
BBX 5 10 1 0
BITMAP
08
30
F0
80
80
80
B0
80
80
F8
ENDCHAR
STARTCHAR 1EC3
ENCODING 7875
SWIDTH 540 0
DWIDTH 6 0
BBX 5 9 1 0
BITMAP
10
30
00
60
98
80
F8
80
F0
ENDCHAR
STARTCHAR 1EC4
ENCODING 7876
SWIDTH 630 0
DWIDTH 7 0
BBX 5 10 1 0
BITMAP
30
30
F0
80
80
80
B0
80
80
F8
ENDCHAR
STARTCHAR 1EC5
ENCODING 7877
SWIDTH 540 0
DWIDTH 6 0
BBX 5 9 1 0
BITMAP
50
20
00
60
98
80
F8
80
F0
ENDCHAR
STARTCHAR 1EC6
ENCODING 7878
SWIDTH 630 0
DWIDTH 7 0
BBX 5 10 1 -1
BITMAP
30
F0
80
80
80
B0
80
80
80
78
ENDCHAR
STARTCHAR 1EC7
ENCODING 7879
SWIDTH 540 0
DWIDTH 6 0
BBX 5 10 1 -2
BITMAP
20
00
60
98
80
F8
80
80
70
20
ENDCHAR
STARTCHAR 1EC8
ENCODING 7880
SWIDTH 270 0
DWIDTH 3 0
BBX 1 8 1 2
BITMAP
80
80
80
80
80
80
80
80
ENDCHAR
STARTCHAR 1EC9
ENCODING 7881
SWIDTH 180 0
DWIDTH 2 0
BBX 1 9 1 0
BITMAP
80
00
00
80
80
80
80
80
80
ENDCHAR
STARTCHAR 1ECA
ENCODING 7882
SWIDTH 270 0
DWIDTH 3 0
BBX 1 10 1 -2
BITMAP
80
80
80
80
80
80
80
80
00
80
ENDCHAR
STARTCHAR 1ECB
ENCODING 7883
SWIDTH 180 0
DWIDTH 2 0
BBX 1 10 1 -2
BITMAP
80
00
80
80
80
80
80
80
00
80
ENDCHAR
STARTCHAR 1ECC
ENCODING 7884
SWIDTH 810 0
DWIDTH 9 0
BBX 8 10 1 -2
BITMAP
38
C6
82
81
81
82
82
44
38
10
ENDCHAR
STARTCHAR 1ECD
ENCODING 7885
SWIDTH 540 0
DWIDTH 6 0
BBX 5 8 1 -2
BITMAP
70
88
88
88
88
90
60
20
ENDCHAR
STARTCHAR 1ECE
ENCODING 7886
SWIDTH 810 0
DWIDTH 9 0
BBX 8 8 1 2
BITMAP
38
C6
82
81
81
82
82
7C
ENDCHAR
STARTCHAR 1ECF
ENCODING 7887
SWIDTH 540 0
DWIDTH 6 0
BBX 5 9 1 0
BITMAP
20
00
00
70
88
88
88
88
F0
ENDCHAR
STARTCHAR 1ED0
ENCODING 7888
SWIDTH 810 0
DWIDTH 9 0
BBX 8 9 1 1
BITMAP
30
38
C6
82
81
81
82
82
7C
ENDCHAR
STARTCHAR 1ED1
ENCODING 7889
SWIDTH 540 0
DWIDTH 6 0
BBX 5 9 1 0
BITMAP
08
20
00
70
88
88
88
88
F0
ENDCHAR
STARTCHAR 1ED2
ENCODING 7890
SWIDTH 810 0
DWIDTH 9 0
BBX 8 9 1 1
BITMAP
30
38
C6
82
81
81
82
82
7C
ENDCHAR
STARTCHAR 1ED3
ENCODING 7891
SWIDTH 540 0
DWIDTH 6 0
BBX 5 8 1 1
BITMAP
30
00
70
88
88
88
88
F0
ENDCHAR
STARTCHAR 1ED4
ENCODING 7892
SWIDTH 810 0
DWIDTH 9 0
BBX 8 9 1 1
BITMAP
30
38
C6
82
81
81
82
82
7C
ENDCHAR
STARTCHAR 1ED5
ENCODING 7893
SWIDTH 540 0
DWIDTH 6 0
BBX 5 9 1 0
BITMAP
10
30
00
70
88
88
88
88
F0
ENDCHAR
STARTCHAR 1ED6
ENCODING 7894
SWIDTH 810 0
DWIDTH 9 0
BBX 8 10 1 0
BITMAP
10
30
38
C6
82
81
81
82
82
7C
ENDCHAR
STARTCHAR 1ED7
ENCODING 7895
SWIDTH 540 0
DWIDTH 6 0
BBX 5 9 1 0
BITMAP
40
20
00
70
88
88
88
88
F0
ENDCHAR
STARTCHAR 1ED8
ENCODING 7896
SWIDTH 810 0
DWIDTH 9 0
BBX 8 12 1 -2
BITMAP
10
00
38
C6
82
81
81
82
82
44
38
10
ENDCHAR
STARTCHAR 1ED9
ENCODING 7897
SWIDTH 540 0
DWIDTH 6 0
BBX 5 10 1 -2
BITMAP
20
00
70
88
88
88
88
90
60
20
ENDCHAR
STARTCHAR 1EDA
ENCODING 7898
SWIDTH 810 0
DWIDTH 9 0
BBX 8 9 1 1
BITMAP
10
2E
C2
82
81
81
82
82
7C
ENDCHAR
STARTCHAR 1EDB
ENCODING 7899
SWIDTH 540 0
DWIDTH 6 0
BBX 5 6 1 2
BITMAP
70
88
88
88
88
F0
ENDCHAR
STARTCHAR 1EDC
ENCODING 7900
SWIDTH 810 0
DWIDTH 9 0
BBX 8 10 1 0
BITMAP
20
10
3E
C2
82
81
81
82
82
7C
ENDCHAR
STARTCHAR 1EDD
ENCODING 7901
SWIDTH 540 0
DWIDTH 6 0
BBX 5 7 1 1
BITMAP
20
70
88
88
88
88
F0
ENDCHAR
STARTCHAR 1EDE
ENCODING 7902
SWIDTH 810 0
DWIDTH 9 0
BBX 8 8 1 2
BITMAP
3E
C2
82
81
81
82
82
7C
ENDCHAR
STARTCHAR 1EDF
ENCODING 7903
SWIDTH 540 0
DWIDTH 6 0
BBX 5 9 1 0
BITMAP
20
00
00
70
88
88
88
88
F0
ENDCHAR
STARTCHAR 1EE0
ENCODING 7904
SWIDTH 810 0
DWIDTH 9 0
BBX 8 9 1 1
BITMAP
10
3E
C2
82
81
81
82
82
7C
ENDCHAR
STARTCHAR 1EE1
ENCODING 7905
SWIDTH 540 0
DWIDTH 6 0
BBX 5 8 1 0
BITMAP
40
20
70
88
88
88
88
F0
ENDCHAR
STARTCHAR 1EE2
ENCODING 7906
SWIDTH 810 0
DWIDTH 9 0
BBX 8 10 1 -1
BITMAP
3E
C2
82
81
81
82
82
44
38
10
ENDCHAR
STARTCHAR 1EE3
ENCODING 7907
SWIDTH 540 0
DWIDTH 6 0
BBX 5 8 1 -1
BITMAP
70
88
88
88
88
90
60
20
ENDCHAR
STARTCHAR 1EE4
ENCODING 7908
SWIDTH 720 0
DWIDTH 8 0
BBX 6 10 1 -2
BITMAP
80
84
84
84
84
84
84
48
30
10
ENDCHAR
STARTCHAR 1EE5
ENCODING 7909
SWIDTH 630 0
DWIDTH 7 0
BBX 5 7 1 -1
BITMAP
88
88
88
88
90
60
20
ENDCHAR
STARTCHAR 1EE6
ENCODING 7910
SWIDTH 720 0
DWIDTH 8 0
BBX 6 9 1 1
BITMAP
10
80
84
84
84
84
84
84
78
ENDCHAR
STARTCHAR 1EE7
ENCODING 7911
SWIDTH 630 0
DWIDTH 7 0
BBX 5 9 1 0
BITMAP
20
00
00
00
88
88
88
88
F0
ENDCHAR
STARTCHAR 1EE8
ENCODING 7912
SWIDTH 720 0
DWIDTH 8 0
BBX 6 10 1 0
BITMAP
08
00
80
84
84
84
84
84
84
78
ENDCHAR
STARTCHAR 1EE9
ENCODING 7913
SWIDTH 630 0
DWIDTH 7 0
BBX 5 8 1 0
BITMAP
10
00
00
88
88
88
88
F0
ENDCHAR
STARTCHAR 1EEA
ENCODING 7914
SWIDTH 720 0
DWIDTH 8 0
BBX 6 10 1 0
BITMAP
20
10
80
84
84
84
84
84
84
78
ENDCHAR
STARTCHAR 1EEB
ENCODING 7915
SWIDTH 630 0
DWIDTH 7 0
BBX 5 7 1 1
BITMAP
20
00
88
88
88
88
F0
ENDCHAR
STARTCHAR 1EEC
ENCODING 7916
SWIDTH 720 0
DWIDTH 8 0
BBX 6 9 1 1
BITMAP
10
80
84
84
84
84
84
84
78
ENDCHAR
STARTCHAR 1EED
ENCODING 7917
SWIDTH 630 0
DWIDTH 7 0
BBX 5 9 1 0
BITMAP
20
00
00
00
88
88
88
88
F0
ENDCHAR
STARTCHAR 1EEE
ENCODING 7918
SWIDTH 720 0
DWIDTH 8 0
BBX 6 9 1 1
BITMAP
10
80
84
84
84
84
84
84
78
ENDCHAR
STARTCHAR 1EEF
ENCODING 7919
SWIDTH 630 0
DWIDTH 7 0
BBX 5 8 1 0
BITMAP
60
00
00
88
88
88
88
F0
ENDCHAR
STARTCHAR 1EF0
ENCODING 7920
SWIDTH 720 0
DWIDTH 8 0
BBX 6 10 1 -1
BITMAP
80
84
84
84
84
84
84
48
30
10
ENDCHAR
STARTCHAR 1EF1
ENCODING 7921
SWIDTH 630 0
DWIDTH 7 0
BBX 5 7 1 0
BITMAP
88
88
88
88
90
60
20
ENDCHAR
STARTCHAR 1EF2
ENCODING 7922
SWIDTH 540 0
DWIDTH 6 0
BBX 6 10 0 0
BITMAP
20
10
80
84
48
48
30
10
10
10
ENDCHAR
STARTCHAR 1EF3
ENCODING 7923
SWIDTH 450 0
DWIDTH 5 0
BBX 5 9 0 -1
BITMAP
20
00
88
88
50
50
20
20
40
ENDCHAR
STARTCHAR 1EF4
ENCODING 7924
SWIDTH 540 0
DWIDTH 6 0
BBX 6 10 0 -2
BITMAP
80
84
48
48
30
10
10
10
00
10
ENDCHAR
STARTCHAR 1EF5
ENCODING 7925
SWIDTH 450 0
DWIDTH 5 0
BBX 5 7 0 -1
BITMAP
88
88
50
50
20
20
40
ENDCHAR
STARTCHAR 1EF6
ENCODING 7926
SWIDTH 540 0
DWIDTH 6 0
BBX 6 9 0 1
BITMAP
10
80
84
48
48
30
10
10
10
ENDCHAR
STARTCHAR 1EF7
ENCODING 7927
SWIDTH 450 0
DWIDTH 5 0
BBX 5 11 0 -2
BITMAP
20
00
00
00
88
88
50
50
20
20
40
ENDCHAR
STARTCHAR 1EF8
ENCODING 7928
SWIDTH 540 0
DWIDTH 6 0
BBX 6 10 0 0
BITMAP
20
10
80
84
48
48
30
10
10
10
ENDCHAR
STARTCHAR 1EF9
ENCODING 7929
SWIDTH 450 0
DWIDTH 5 0
BBX 5 10 0 -2
BITMAP
60
00
00
88
88
50
50
20
20
40
ENDCHAR
STARTCHAR 2007
ENCODING 8199
SWIDTH 630 0
DWIDTH 7 0
BBX 0 0 0 0
BITMAP
ENDCHAR
STARTCHAR 2008
ENCODING 8200
SWIDTH 180 0
DWIDTH 2 0
BBX 0 0 0 0
BITMAP
ENDCHAR
STARTCHAR 2009
ENCODING 8201
SWIDTH 90 0
DWIDTH 1 0
BBX 0 0 0 0
BITMAP
ENDCHAR
STARTCHAR 200A
ENCODING 8202
SWIDTH 90 0
DWIDTH 1 0
BBX 0 0 0 0
BITMAP
ENDCHAR
STARTCHAR 200B
ENCODING 8203
SWIDTH 0 0
DWIDTH 0 0
BBX 0 0 0 0
BITMAP
ENDCHAR
STARTCHAR 2010
ENCODING 8208
SWIDTH 360 0
DWIDTH 4 0
BBX 1 1 2 2
BITMAP
80
ENDCHAR
STARTCHAR 2012
ENCODING 8210
SWIDTH 630 0
DWIDTH 7 0
BBX 4 1 2 3
BITMAP
F0
ENDCHAR
STARTCHAR 2013
ENCODING 8211
SWIDTH 450 0
DWIDTH 5 0
BBX 4 1 1 2
BITMAP
F0
ENDCHAR
STARTCHAR 2014
ENCODING 8212
SWIDTH 990 0
DWIDTH 11 0
BBX 9 1 1 2
BITMAP
FF80
ENDCHAR
STARTCHAR 2015
ENCODING 8213
SWIDTH 990 0
DWIDTH 11 0
BBX 9 1 1 2
BITMAP
FF80
ENDCHAR
STARTCHAR 2018
ENCODING 8216
SWIDTH 180 0
DWIDTH 2 0
BBX 0 0 1 6
BITMAP
ENDCHAR
STARTCHAR 2019
ENCODING 8217
SWIDTH 180 0
DWIDTH 2 0
BBX 0 0 0 6
BITMAP
ENDCHAR
STARTCHAR 201A
ENCODING 8218
SWIDTH 180 0
DWIDTH 2 0
BBX 1 1 0 -1
BITMAP
80
ENDCHAR
STARTCHAR 201C
ENCODING 8220
SWIDTH 270 0
DWIDTH 3 0
BBX 1 2 2 6
BITMAP
80
80
ENDCHAR
STARTCHAR 201D
ENCODING 8221
SWIDTH 270 0
DWIDTH 3 0
BBX 1 1 2 6
BITMAP
80
ENDCHAR
STARTCHAR 201E
ENCODING 8222
SWIDTH 270 0
DWIDTH 3 0
BBX 2 2 1 -2
BITMAP
40
C0
ENDCHAR
STARTCHAR 2020
ENCODING 8224
SWIDTH 450 0
DWIDTH 5 0
BBX 3 8 1 -1
BITMAP
40
40
E0
40
40
40
40
40
ENDCHAR
STARTCHAR 2021
ENCODING 8225
SWIDTH 450 0
DWIDTH 5 0
BBX 3 8 1 -1
BITMAP
40
40
E0
40
40
40
E0
40
ENDCHAR
STARTCHAR 2022
ENCODING 8226
SWIDTH 180 0
DWIDTH 2 0
BBX 0 0 1 2
BITMAP
ENDCHAR
STARTCHAR 2026
ENCODING 8230
SWIDTH 540 0
DWIDTH 6 0
BBX 0 0 1 0
BITMAP
ENDCHAR
STARTCHAR 2030
ENCODING 8240
SWIDTH 1080 0
DWIDTH 12 0
BBX 11 8 1 0
BITMAP
C000
A800
A800
B000
6EE0
3320
5320
0EE0
ENDCHAR
STARTCHAR 2032
ENCODING 8242
SWIDTH 180 0
DWIDTH 2 0
BBX 1 1 1 6
BITMAP
80
ENDCHAR
STARTCHAR 2033
ENCODING 8243
SWIDTH 270 0
DWIDTH 3 0
BBX 2 1 1 6
BITMAP
C0
ENDCHAR
STARTCHAR 2039
ENCODING 8249
SWIDTH 270 0
DWIDTH 3 0
BBX 1 2 1 2
BITMAP
80
80
ENDCHAR
STARTCHAR 203A
ENCODING 8250
SWIDTH 270 0
DWIDTH 3 0
BBX 1 2 1 2
BITMAP
80
80
ENDCHAR
STARTCHAR 2044
ENCODING 8260
SWIDTH 90 0
DWIDTH 1 0
BBX 5 7 -2 1
BITMAP
08
10
20
20
40
80
80
ENDCHAR
STARTCHAR 2052
ENCODING 8274
SWIDTH 450 0
DWIDTH 5 0
BBX 3 8 1 0
BITMAP
80
20
40
40
40
80
80
A0
ENDCHAR
STARTCHAR 2070
ENCODING 8304
SWIDTH 360 0
DWIDTH 4 0
BBX 4 4 0 4
BITMAP
F0
90
90
F0
ENDCHAR
STARTCHAR 2074
ENCODING 8308
SWIDTH 360 0
DWIDTH 4 0
BBX 3 3 0 5
BITMAP
40
80
60
ENDCHAR
STARTCHAR 2075
ENCODING 8309
SWIDTH 360 0
DWIDTH 4 0
BBX 3 4 1 4
BITMAP
C0
80
60
60
ENDCHAR
STARTCHAR 2076
ENCODING 8310
SWIDTH 360 0
DWIDTH 4 0
BBX 3 4 1 4
BITMAP
C0
80
E0
E0
ENDCHAR
STARTCHAR 2077
ENCODING 8311
SWIDTH 360 0
DWIDTH 4 0
BBX 4 3 0 4
BITMAP
F0
10
20
ENDCHAR
STARTCHAR 2078
ENCODING 8312
SWIDTH 360 0
DWIDTH 4 0
BBX 4 4 0 4
BITMAP
F0
90
F0
F0
ENDCHAR
STARTCHAR 2079
ENCODING 8313
SWIDTH 360 0
DWIDTH 4 0
BBX 3 4 1 4
BITMAP
E0
A0
60
60
ENDCHAR
STARTCHAR 2080
ENCODING 8320
SWIDTH 360 0
DWIDTH 4 0
BBX 4 5 0 -1
BITMAP
20
D0
90
90
F0
ENDCHAR
STARTCHAR 2081
ENCODING 8321
SWIDTH 360 0
DWIDTH 4 0
BBX 2 5 1 -1
BITMAP
C0
40
40
40
40
ENDCHAR
STARTCHAR 2082
ENCODING 8322
SWIDTH 360 0
DWIDTH 4 0
BBX 4 4 0 0
BITMAP
70
10
60
E0
ENDCHAR
STARTCHAR 2083
ENCODING 8323
SWIDTH 360 0
DWIDTH 4 0
BBX 4 5 0 -1
BITMAP
F0
20
40
30
F0
ENDCHAR
STARTCHAR 2084
ENCODING 8324
SWIDTH 360 0
DWIDTH 4 0
BBX 3 4 0 0
BITMAP
40
40
A0
40
ENDCHAR
STARTCHAR 2085
ENCODING 8325
SWIDTH 360 0
DWIDTH 4 0
BBX 3 5 1 -1
BITMAP
E0
80
80
60
60
ENDCHAR
STARTCHAR 2086
ENCODING 8326
SWIDTH 360 0
DWIDTH 4 0
BBX 3 4 1 0
BITMAP
C0
C0
A0
E0
ENDCHAR
STARTCHAR 2087
ENCODING 8327
SWIDTH 360 0
DWIDTH 4 0
BBX 4 4 0 -1
BITMAP
F0
90
20
20
ENDCHAR
STARTCHAR 2088
ENCODING 8328
SWIDTH 360 0
DWIDTH 4 0
BBX 4 5 0 -1
BITMAP
20
D0
50
B0
F0
ENDCHAR
STARTCHAR 2089
ENCODING 8329
SWIDTH 360 0
DWIDTH 4 0
BBX 3 4 1 0
BITMAP
E0
A0
60
60
ENDCHAR
STARTCHAR 20A1
ENCODING 8353
SWIDTH 630 0
DWIDTH 7 0
BBX 6 10 1 -1
BITMAP
04
38
E8
A8
B0
B0
D0
D0
64
58
ENDCHAR
STARTCHAR 20A3
ENCODING 8355
SWIDTH 630 0
DWIDTH 7 0
BBX 5 7 1 0
BITMAP
38
80
80
80
B0
80
C0
ENDCHAR
STARTCHAR 20A4
ENCODING 8356
SWIDTH 540 0
DWIDTH 6 0
BBX 5 8 1 0
BITMAP
78
80
80
E0
80
E0
80
F8
ENDCHAR
STARTCHAR 20A6
ENCODING 8358
SWIDTH 810 0
DWIDTH 9 0
BBX 7 8 1 0
BITMAP
80
C2
A2
FE
92
EE
86
06
ENDCHAR
STARTCHAR 20A7
ENCODING 8359
SWIDTH 1530 0
DWIDTH 17 0
BBX 16 8 1 0
BITMAP
F800
8480
848E
8490
8490
F88E
8081
80C7
ENDCHAR
STARTCHAR 20A9
ENCODING 8361
SWIDTH 1080 0
DWIDTH 12 0
BBX 12 8 0 0
BITMAP
0400
8610
4620
79E0
4940
37E0
30C0
1080
ENDCHAR
STARTCHAR 20AB
ENCODING 8363
SWIDTH 630 0
DWIDTH 7 0
BBX 5 8 1 0
BITMAP
18
78
88
88
88
88
90
70
ENDCHAR
STARTCHAR 20AC
ENCODING 8364
SWIDTH 720 0
DWIDTH 8 0
BBX 7 8 1 0
BITMAP
1C
60
80
F0
80
F0
40
3E
ENDCHAR
STARTCHAR 20AD
ENCODING 8365
SWIDTH 540 0
DWIDTH 6 0
BBX 5 8 1 0
BITMAP
08
90
A0
80
60
A0
90
08
ENDCHAR
STARTCHAR 20AE
ENCODING 8366
SWIDTH 630 0
DWIDTH 7 0
BBX 5 7 1 0
BITMAP
78
20
28
30
D0
60
20
ENDCHAR
STARTCHAR 20B1
ENCODING 8369
SWIDTH 810 0
DWIDTH 9 0
BBX 9 7 0 0
BITMAP
7C00
4200
7F00
FF80
4200
5C00
4000
ENDCHAR
STARTCHAR 20B2
ENCODING 8370
SWIDTH 720 0
DWIDTH 8 0
BBX 6 9 1 0
BITMAP
38
E0
A0
A0
A0
A4
A0
64
18
ENDCHAR
STARTCHAR 20B4
ENCODING 8372
SWIDTH 810 0
DWIDTH 9 0
BBX 6 8 1 0
BITMAP
38
04
00
7C
00
7C
80
7C
ENDCHAR
STARTCHAR 20B5
ENCODING 8373
SWIDTH 630 0
DWIDTH 7 0
BBX 6 9 1 0
BITMAP
38
E0
A0
A0
A0
A0
A0
64
18
ENDCHAR
STARTCHAR 20B8
ENCODING 8376
SWIDTH 630 0
DWIDTH 7 0
BBX 4 7 2 0
BITMAP
F0
00
F0
40
40
40
40
ENDCHAR
STARTCHAR 20B9
ENCODING 8377
SWIDTH 630 0
DWIDTH 7 0
BBX 5 8 1 0
BITMAP
F8
08
F8
08
00
70
10
08
ENDCHAR
STARTCHAR 20BA
ENCODING 8378
SWIDTH 630 0
DWIDTH 7 0
BBX 6 7 1 1
BITMAP
90
60
80
E0
84
88
B0
ENDCHAR
STARTCHAR 20BC
ENCODING 8380
SWIDTH 900 0
DWIDTH 10 0
BBX 8 8 1 1
BITMAP
3C
52
92
91
91
91
81
80
ENDCHAR
STARTCHAR 20BD
ENCODING 8381
SWIDTH 630 0
DWIDTH 7 0
BBX 6 7 1 0
BITMAP
F8
84
84
84
84
B8
C0
ENDCHAR
STARTCHAR 2113
ENCODING 8467
SWIDTH 450 0
DWIDTH 5 0
BBX 4 8 1 0
BITMAP
60
90
A0
A0
C0
80
80
E0
ENDCHAR
STARTCHAR 2116
ENCODING 8470
SWIDTH 1170 0
DWIDTH 13 0
BBX 11 8 1 0
BITMAP
82E0
C320
C320
A2C0
9200
8A40
8600
8200
ENDCHAR
STARTCHAR 2122
ENCODING 8482
SWIDTH 990 0
DWIDTH 11 0
BBX 9 5 1 3
BITMAP
C080
8880
9B80
9680
0080
ENDCHAR
STARTCHAR 2126
ENCODING 8486
SWIDTH 900 0
DWIDTH 10 0
BBX 9 8 0 0
BITMAP
1E00
6100
4080
8080
8080
4080
4100
6180
ENDCHAR
STARTCHAR 212A
ENCODING 8490
SWIDTH 630 0
DWIDTH 7 0
BBX 6 8 1 0
BITMAP
80
88
90
A0
C0
90
88
84
ENDCHAR
STARTCHAR 212B
ENCODING 8491
SWIDTH 630 0
DWIDTH 7 0
BBX 7 11 0 0
BITMAP
10
28
10
10
28
28
48
44
7C
82
80
ENDCHAR
STARTCHAR 212E
ENCODING 8494
SWIDTH 900 0
DWIDTH 10 0
BBX 8 8 1 0
BITMAP
3C
C2
81
81
FE
80
80
7C
ENDCHAR
STARTCHAR 2153
ENCODING 8531
SWIDTH 990 0
DWIDTH 11 0
BBX 9 8 2 0
BITMAP
8000
8400
8800
9700
9100
2200
4180
0300
ENDCHAR
STARTCHAR 2154
ENCODING 8532
SWIDTH 990 0
DWIDTH 11 0
BBX 11 8 0 0
BITMAP
6000
1100
2200
45C0
8440
6880
1060
00C0
ENDCHAR
STARTCHAR 215B
ENCODING 8539
SWIDTH 990 0
DWIDTH 11 0
BBX 9 8 2 0
BITMAP
8000
8400
8800
9300
9C80
2700
4C80
0780
ENDCHAR
STARTCHAR 215C
ENCODING 8540
SWIDTH 990 0
DWIDTH 11 0
BBX 10 8 1 0
BITMAP
E000
4200
4400
2980
2E40
D380
2640
03C0
ENDCHAR
STARTCHAR 215D
ENCODING 8541
SWIDTH 990 0
DWIDTH 11 0
BBX 10 8 1 0
BITMAP
C000
8200
C400
2980
2E40
5380
2640
03C0
ENDCHAR
STARTCHAR 215E
ENCODING 8542
SWIDTH 990 0
DWIDTH 11 0
BBX 11 8 0 0
BITMAP
F000
1100
2200
24C0
0720
09C0
1320
01E0
ENDCHAR
STARTCHAR 2190
ENCODING 8592
SWIDTH 540 0
DWIDTH 6 0
BBX 4 4 1 1
BITMAP
40
80
B0
40
ENDCHAR
STARTCHAR 2191
ENCODING 8593
SWIDTH 540 0
DWIDTH 6 0
BBX 2 3 2 1
BITMAP
C0
80
80
ENDCHAR
STARTCHAR 2192
ENCODING 8594
SWIDTH 540 0
DWIDTH 6 0
BBX 3 2 2 2
BITMAP
20
E0
ENDCHAR
STARTCHAR 2193
ENCODING 8595
SWIDTH 540 0
DWIDTH 6 0
BBX 1 4 3 1
BITMAP
80
80
80
80
ENDCHAR
STARTCHAR 2194
ENCODING 8596
SWIDTH 540 0
DWIDTH 6 0
BBX 5 2 1 2
BITMAP
88
F8
ENDCHAR
STARTCHAR 2195
ENCODING 8597
SWIDTH 540 0
DWIDTH 6 0
BBX 2 6 2 1
BITMAP
40
80
80
80
80
C0
ENDCHAR
STARTCHAR 2196
ENCODING 8598
SWIDTH 540 0
DWIDTH 6 0
BBX 3 4 2 1
BITMAP
C0
80
40
20
ENDCHAR
STARTCHAR 2197
ENCODING 8599
SWIDTH 540 0
DWIDTH 6 0
BBX 3 3 2 1
BITMAP
60
20
C0
ENDCHAR
STARTCHAR 2198
ENCODING 8600
SWIDTH 540 0
DWIDTH 6 0
BBX 3 3 2 2
BITMAP
80
60
40
ENDCHAR
STARTCHAR 2199
ENCODING 8601
SWIDTH 540 0
DWIDTH 6 0
BBX 3 4 2 1
BITMAP
20
40
80
60
ENDCHAR
STARTCHAR 2202
ENCODING 8706
SWIDTH 630 0
DWIDTH 7 0
BBX 6 8 1 0
BITMAP
30
08
04
74
8C
84
88
F0
ENDCHAR
STARTCHAR 2205
ENCODING 8709
SWIDTH 540 0
DWIDTH 6 0
BBX 4 5 1 1
BITMAP
60
B0
D0
90
60
ENDCHAR
STARTCHAR 2206
ENCODING 8710
SWIDTH 630 0
DWIDTH 7 0
BBX 7 8 0 0
BITMAP
10
28
28
48
44
44
82
FE
ENDCHAR
STARTCHAR 220F
ENCODING 8719
SWIDTH 810 0
DWIDTH 9 0
BBX 7 10 1 -2
BITMAP
FE
82
82
82
82
82
82
82
82
82
ENDCHAR
STARTCHAR 2211
ENCODING 8721
SWIDTH 630 0
DWIDTH 7 0
BBX 5 10 1 -2
BITMAP
F8
80
40
40
20
10
20
40
80
F8
ENDCHAR
STARTCHAR 2212
ENCODING 8722
SWIDTH 540 0
DWIDTH 6 0
BBX 2 1 2 3
BITMAP
C0
ENDCHAR
STARTCHAR 2215
ENCODING 8725
SWIDTH 270 0
DWIDTH 3 0
BBX 3 8 0 0
BITMAP
20
20
40
40
40
80
80
80
ENDCHAR
STARTCHAR 2219
ENCODING 8729
SWIDTH 180 0
DWIDTH 2 0
BBX 0 0 1 3
BITMAP
ENDCHAR
STARTCHAR 221A
ENCODING 8730
SWIDTH 720 0
DWIDTH 8 0
BBX 6 9 2 -1
BITMAP
04
04
08
88
88
90
50
60
20
ENDCHAR
STARTCHAR 221E
ENCODING 8734
SWIDTH 900 0
DWIDTH 10 0
BBX 9 4 1 2
BITMAP
E700
9900
9080
EF00
ENDCHAR
STARTCHAR 222B
ENCODING 8747
SWIDTH 270 0
DWIDTH 3 0
BBX 2 10 1 -2
BITMAP
40
80
80
80
80
80
80
80
80
80
ENDCHAR
STARTCHAR 2248
ENCODING 8776
SWIDTH 540 0
DWIDTH 6 0
BBX 4 4 1 2
BITMAP
C0
30
00
60
ENDCHAR
STARTCHAR 2260
ENCODING 8800
SWIDTH 540 0
DWIDTH 6 0
BBX 4 5 1 1
BITMAP
10
20
60
40
A0
ENDCHAR
STARTCHAR 2264
ENCODING 8804
SWIDTH 540 0
DWIDTH 6 0
BBX 4 6 1 0
BITMAP
10
60
80
60
00
60
ENDCHAR
STARTCHAR 2265
ENCODING 8805
SWIDTH 540 0
DWIDTH 6 0
BBX 4 6 1 0
BITMAP
80
60
10
E0
00
60
ENDCHAR
STARTCHAR 25A0
ENCODING 9632
SWIDTH 540 0
DWIDTH 6 0
BBX 4 4 1 1
BITMAP
F0
F0
F0
F0
ENDCHAR
STARTCHAR 25A1
ENCODING 9633
SWIDTH 540 0
DWIDTH 6 0
BBX 4 4 1 1
BITMAP
F0
90
90
F0
ENDCHAR
STARTCHAR 25B2
ENCODING 9650
SWIDTH 540 0
DWIDTH 6 0
BBX 4 4 1 1
BITMAP
20
60
70
F0
ENDCHAR
STARTCHAR 25B3
ENCODING 9651
SWIDTH 540 0
DWIDTH 6 0
BBX 4 4 1 1
BITMAP
20
60
90
F0
ENDCHAR
STARTCHAR 25B6
ENCODING 9654
SWIDTH 540 0
DWIDTH 6 0
BBX 5 4 1 1
BITMAP
C0
F0
F8
C0
ENDCHAR
STARTCHAR 25B7
ENCODING 9655
SWIDTH 540 0
DWIDTH 6 0
BBX 5 4 1 1
BITMAP
C0
B0
98
E0
ENDCHAR
STARTCHAR 25BC
ENCODING 9660
SWIDTH 540 0
DWIDTH 6 0
BBX 4 4 1 1
BITMAP
F0
70
60
20
ENDCHAR
STARTCHAR 25BD
ENCODING 9661
SWIDTH 540 0
DWIDTH 6 0
BBX 4 4 1 1
BITMAP
F0
90
60
60
ENDCHAR
STARTCHAR 25C0
ENCODING 9664
SWIDTH 540 0
DWIDTH 6 0
BBX 4 4 1 1
BITMAP
10
70
F0
10
ENDCHAR
STARTCHAR 25C1
ENCODING 9665
SWIDTH 540 0
DWIDTH 6 0
BBX 4 4 1 1
BITMAP
30
D0
90
70
ENDCHAR
STARTCHAR 25C6
ENCODING 9670
SWIDTH 540 0
DWIDTH 6 0
BBX 5 6 1 0
BITMAP
20
70
F8
F8
70
20
ENDCHAR
STARTCHAR 25C7
ENCODING 9671
SWIDTH 540 0
DWIDTH 6 0
BBX 6 6 0 0
BITMAP
10
68
84
84
48
30
ENDCHAR
STARTCHAR 25CA
ENCODING 9674
SWIDTH 450 0
DWIDTH 5 0
BBX 4 7 1 0
BITMAP
40
A0
A0
90
A0
A0
40
ENDCHAR
STARTCHAR 27E8
ENCODING 10216
SWIDTH 270 0
DWIDTH 3 0
BBX 1 8 1 -1
BITMAP
80
80
80
80
80
80
80
80
ENDCHAR
STARTCHAR 27E9
ENCODING 10217
SWIDTH 270 0
DWIDTH 3 0
BBX 2 8 1 -1
BITMAP
80
80
80
40
40
80
80
80
ENDCHAR
STARTCHAR A78B
ENCODING 42891
SWIDTH 180 0
DWIDTH 2 0
BBX 1 3 1 4
BITMAP
80
80
80
ENDCHAR
STARTCHAR A78C
ENCODING 42892
SWIDTH 180 0
DWIDTH 2 0
BBX 1 2 1 4
BITMAP
80
80
ENDCHAR
STARTCHAR FB01
ENCODING 64257
SWIDTH 540 0
DWIDTH 6 0
BBX 4 8 1 0
BITMAP
C0
80
C0
90
90
90
90
80
ENDCHAR
STARTCHAR FB02
ENCODING 64258
SWIDTH 540 0
DWIDTH 6 0
BBX 4 8 1 0
BITMAP
C0
90
D0
90
90
90
90
80
ENDCHAR
ENDFONT
